<?xml version="1.0" standalone="no"?>
<!DOCTYPE svg PUBLIC "-//W3C//DTD SVG 1.1//EN" "http://www.w3.org/Graphics/SVG/1.1/DTD/svg11.dtd" >
<svg xmlns="http://www.w3.org/2000/svg" xmlns:xlink="http://www.w3.org/1999/xlink" version="1.1">
<metadata>
Created by FontForge 20201107 at Thu Jan  4 15:25:09 2024
 By 
Copyright (c) 2019 by Arterfak Project. All rights reserved.
</metadata>
<defs>
<font id="CherioneNormal" horiz-adv-x="1478" >
  <font-face 
    font-family="Cherione Normal"
    font-weight="400"
    font-stretch="normal"
    units-per-em="2048"
    panose-1="0 0 0 0 0 0 0 0 0 0"
    ascent="1536"
    descent="-512"
    x-height="1464"
    cap-height="1462"
    bbox="-92 -486.636 2949 2003"
    underline-thickness="102"
    underline-position="-204"
    unicode-range="U+000D-20AC"
  />
<missing-glyph horiz-adv-x="716" 
 />
    <glyph glyph-name=".notdef" horiz-adv-x="716" 
 />
    <glyph glyph-name=".null" horiz-adv-x="0" 
 />
    <glyph glyph-name="nonmarkingreturn" horiz-adv-x="682" 
 />
    <glyph glyph-name="NULL" horiz-adv-x="0" 
 />
    <glyph glyph-name="NULL" horiz-adv-x="0" 
 />
    <glyph glyph-name="CR" unicode="&#xd;" horiz-adv-x="716" 
 />
    <glyph glyph-name="space" unicode=" " horiz-adv-x="716" 
 />
    <glyph glyph-name="exclam" unicode="!" horiz-adv-x="503" 
d="M299 303h-92l-27 1161h144zM252 180q37 0 62.5 -26.5t25.5 -63.5t-25.5 -62.5t-62.5 -25.5t-62.5 25.5t-25.5 62.5t25.5 63.5t62.5 26.5z" />
    <glyph glyph-name="quotedbl" unicode="&#x22;" horiz-adv-x="759" 
d="M254 1464q37 0 62.5 -26.5t25.5 -63.5q0 -79 -56 -151.5t-98 -92.5l-24 39q62 48 72 119q-31 6 -51.5 30t-20.5 56q0 37 26.5 63.5t63.5 26.5zM508 1464q37 0 62.5 -26.5t25.5 -63.5q0 -79 -56 -151.5t-98 -92.5l-24 39q60 47 71 119q-31 6 -51 30t-20 56q0 37 26.5 63.5
t63.5 26.5z" />
    <glyph glyph-name="numbersign" unicode="#" horiz-adv-x="1335" 
d="M1022 1464l-57 -467h206l-12 -112h-209l-37 -303h209l-14 -113h-209l-57 -467h-113l57 467h-301l-57 -467h-113l58 467h-209l14 113h207l37 303h-207l14 112h207l58 467h112l-57 -467h303l57 467h113zM801 582l37 303h-303l-37 -303h303z" />
    <glyph glyph-name="dollar" unicode="$" horiz-adv-x="1366" 
d="M1026 668q80 -57 127 -131q49 -82 49 -185q0 -85 -38.5 -157t-110.5 -121q-137 -92 -338 -92v-199h-113v205q-82 11 -155.5 39.5t-119.5 58.5t-85 66t-53.5 55t-23.5 31l-1 2l121 75q32 -47 100 -96q95 -65 217 -86v578q-179 69 -266 129q-76 52 -115 114q-47 67 -47 162
q0 175 148 266q111 69 280 78v158h113v-156q71 -3 143.5 -20t123.5 -36.5t97.5 -42.5t65.5 -35t26 -17l-41 -60l-38 -59q-7 7 -51 31.5t-139 57.5t-187 38v-500q218 -84 311 -151zM416 958q62 -43 186 -94v453q-133 -9 -205 -55q-80 -53 -80 -146q0 -90 99 -158zM971 193
q88 58 88 159q0 117 -115 199q-78 56 -229 115v-541q160 0 256 68z" />
    <glyph glyph-name="percent" unicode="%" horiz-adv-x="1757" 
d="M1278 618q130 0 222.5 -92t92.5 -223t-92.5 -224t-222.5 -93t-222.5 93t-92.5 224t92.5 223t222.5 92zM1278 98q83 0 143 60t60 145q0 83 -60 143t-143 60q-84 0 -143.5 -59.5t-59.5 -143.5q0 -85 59 -145t144 -60zM797 1174q0 -130 -93.5 -223t-224.5 -93
q-130 0 -222.5 92.5t-92.5 223.5q0 130 92 222.5t223 92.5t224.5 -92.5t93.5 -222.5zM479 971q85 0 145 59t60 144q0 84 -60 143t-145 59q-84 0 -143.5 -59t-59.5 -143t59.5 -143.5t143.5 -59.5zM1149 1464h113l-654 -1462h-112z" />
    <glyph glyph-name="ampersand" unicode="&#x26;" horiz-adv-x="1415" 
d="M418 1118q0 -85 59 -144t144 -59h630v-143h-174v-313q0 -192 -135 -324q-133 -133 -321 -133q-191 0 -324 133t-133 324q0 190 133 323q46 46 98 74q-56 48 -88.5 116.5t-32.5 145.5q0 145 115 248q112 98 279 98q150 0 262 -75q64 -45 94 -107q37 -64 37 -149h-143
q0 88 -70 137q-70 51 -180 51q-109 0 -179.5 -57.5t-70.5 -145.5zM934 772h-313q-130 0 -222 -92t-92 -221t92 -221.5t222 -92.5q129 0 221 92.5t92 221.5v313z" />
    <glyph glyph-name="quotesingle" unicode="'" horiz-adv-x="505" 
d="M164 1169q62 48 69 119q-30 6 -49.5 30t-19.5 56q0 37 25.5 63.5t62.5 26.5t63.5 -26.5t26.5 -63.5q0 -42 -19 -86t-45.5 -75.5t-50.5 -53t-39 -29.5z" />
    <glyph glyph-name="parenleft" unicode="(" horiz-adv-x="729" 
d="M276 717q0 -221 73.5 -403.5t215.5 -297.5l-43 -55q-170 138 -264 329t-94 427q0 234 94 424.5t264 328.5l43 -55q-142 -115 -215.5 -296.5t-73.5 -401.5z" />
    <glyph glyph-name="parenright" unicode=")" horiz-adv-x="729" 
d="M207 1470q171 -138 264.5 -328t93.5 -425q0 -237 -93.5 -427.5t-264.5 -328.5l-43 55q142 115 215.5 297.5t73.5 403.5q0 220 -73.5 401.5t-215.5 296.5z" />
    <glyph glyph-name="asterisk" unicode="*" horiz-adv-x="991" 
d="M793 1288l34 -106l-268 -70l176 -213l-92 -68l-147 236l-150 -236l-90 68l176 213l-268 70l35 106l258 -102l-19 278h113l-16 -278z" />
    <glyph glyph-name="plus" unicode="+" horiz-adv-x="882" 
d="M498 993v-221h221v-113h-221v-221h-113v221h-221v113h221v221h113z" />
    <glyph glyph-name="comma" unicode="," horiz-adv-x="505" 
d="M254 180q37 0 62.5 -26.5t25.5 -63.5q0 -78 -56.5 -151t-97.5 -91l-24 37q62 48 72 119q-31 6 -51.5 30.5t-20.5 55.5q0 37 26.5 63.5t63.5 26.5z" />
    <glyph glyph-name="hyphen" unicode="-" horiz-adv-x="772" 
d="M164 659v113h444v-113h-444z" />
    <glyph glyph-name="period" unicode="." horiz-adv-x="505" 
d="M254 180q37 0 62.5 -26.5t25.5 -63.5t-25.5 -62.5t-62.5 -25.5t-63.5 25.5t-26.5 62.5t26.5 63.5t63.5 26.5z" />
    <glyph glyph-name="slash" unicode="/" horiz-adv-x="1093" 
d="M817 1464h113l-654 -1462h-112z" />
    <glyph glyph-name="zero" unicode="0" 
d="M739 1495q121 0 227.5 -53.5t184.5 -153.5q164 -209 164 -545q0 -335 -164 -544q-78 -100 -184.5 -153.5t-227.5 -53.5q-122 0 -228.5 53.5t-182.5 153.5q-164 209 -164 544q0 336 164 545q76 100 182.5 153.5t228.5 53.5zM1038 276q133 171 133 467t-133 467
q-119 156 -299 156q-183 0 -299 -156q-133 -171 -133 -467t133 -467q115 -155 299 -155q180 0 299 155z" />
    <glyph glyph-name="one" unicode="1" horiz-adv-x="612" 
d="M164 1321v143h285v-1462h-144v1319h-141z" />
    <glyph glyph-name="two" unicode="2" horiz-adv-x="1286" 
d="M979 821l-522 -676h665v-143h-958l702 907q52 66 63.5 143t-20.5 144q-32 68 -99.5 106t-158.5 39h-10q-134 0 -250 -59q-24 -13 -45.5 -26.5t-31.5 -21.5l-9 -7l-96 104q6 6 21.5 18.5t57 38t89 45.5t119 36t145.5 16h12q136 -3 240 -66q99 -61 145 -162
q51 -105 34.5 -222t-93.5 -214z" />
    <glyph glyph-name="three" unicode="3" horiz-adv-x="1349" 
d="M885 930q95 -38 164 -107q66 -68 101.5 -158.5t35.5 -191.5q0 -103 -40.5 -195t-115.5 -161q-154 -135 -368 -135q-169 0 -308 94q-133 92 -190 243l135 50q40 -109 140 -176.5t223 -67.5q163 0 271.5 99.5t108.5 248.5q0 158 -101 255t-267 97l-213 -4l397 500h-579v143
h878l-399 -501q69 -9 127 -33z" />
    <glyph glyph-name="four" unicode="4" horiz-adv-x="1400" 
d="M1118 1464v-985h119v-123h-119v-354h-143v354h-811l790 1108h164zM975 479v768l-553 -768h553z" />
    <glyph glyph-name="five" unicode="5" horiz-adv-x="1224" 
d="M547 1020q212 0 364 -152q72 -72 111 -165.5t39 -196.5t-39 -197t-111 -166q-151 -151 -364 -151q-109 0 -208 44.5t-171 127.5l106 94q53 -59 124 -91t149 -32q154 0 262.5 108.5t108.5 262.5t-108.5 262.5t-262.5 108.5q-60 0 -121 -15.5t-106 -37.5t-81.5 -44
t-55.5 -38l-19 -15l115 737h694v-143h-572l-53 -336q103 35 199 35z" />
    <glyph glyph-name="six" unicode="6" horiz-adv-x="1359" 
d="M700 1024q93 0 181 -34.5t158.5 -98t113.5 -163.5t43 -220q0 -103 -39.5 -198t-112.5 -167q-72 -73 -166.5 -112t-197.5 -39t-198 39t-167 112q-73 72 -112 167t-39 198q0 499 258 745q217 211 573 211v-123q-55 0 -109.5 -8t-117.5 -26t-121 -52t-112 -82.5
t-99.5 -121.5t-75.5 -164q65 66 154.5 101.5t185.5 35.5zM680 123q154 0 263.5 112.5t109.5 272.5q0 164 -103 274.5t-270 110.5q-154 0 -263.5 -112.5t-109.5 -272.5t109.5 -272.5t263.5 -112.5z" />
    <glyph glyph-name="seven" unicode="7" horiz-adv-x="1181" 
d="M164 1321v143h854l-563 -1462h-154l508 1319h-645z" />
    <glyph glyph-name="eight" unicode="8" horiz-adv-x="1304" 
d="M993 686q70 -61 107 -133q41 -80 41 -166q0 -98 -41 -178q-38 -77 -109 -133q-136 -105 -340 -105q-205 0 -338 105q-70 55 -108 133q-41 80 -41 178q0 86 41 166q38 74 106 133q43 34 97 62q-39 19 -76 51q-62 48 -103 125q-36 71 -36 155q0 97 36 170q38 74 103 127
q129 99 319 99q193 0 322 -99q64 -52 102 -127q37 -75 37 -170q0 -82 -37 -155q-39 -74 -102 -125q-37 -32 -76 -51q51 -26 96 -62zM336 1067q0 -109 92.5 -186.5t222.5 -77.5q132 0 225 77.5t93 186.5q0 70 -28.5 123t-76 82.5t-101.5 44t-112 14.5t-111 -14.5t-100 -44
t-75.5 -82.5t-28.5 -123zM651 115q50 0 97.5 9t93 31t79.5 54t55 81.5t21 110.5q0 117 -101 201t-243 84h-2q-142 0 -243 -84t-101 -201q0 -61 21 -110.5t54.5 -81.5t79 -54t93 -31t96.5 -9z" />
    <glyph glyph-name="nine" unicode="9" horiz-adv-x="1359" 
d="M680 1454q210 0 364 -151q73 -73 112.5 -167.5t39.5 -197.5q0 -496 -258 -748q-214 -208 -573 -208v122q67 0 132 10.5t142 41.5t141.5 79.5t123.5 132t95 191.5q-65 -66 -154.5 -101.5t-185.5 -35.5q-93 0 -180.5 34.5t-158 98t-113.5 163.5t-43 220q0 214 151 365
q72 72 167 111.5t198 39.5zM680 553q154 0 263.5 112.5t109.5 272.5q0 158 -109.5 271.5t-263.5 113.5q-155 0 -264 -113t-109 -272q0 -164 103 -274.5t270 -110.5z" />
    <glyph glyph-name="colon" unicode=":" horiz-adv-x="503" 
d="M252 180q37 0 62.5 -26.5t25.5 -63.5t-25.5 -62.5t-62.5 -25.5t-62.5 25.5t-25.5 62.5t25.5 63.5t62.5 26.5zM252 1042q36 0 62 -26t26 -62q0 -37 -25.5 -63.5t-62.5 -26.5t-62.5 26.5t-25.5 63.5q0 36 26 62t62 26z" />
    <glyph glyph-name="semicolon" unicode=";" horiz-adv-x="505" 
d="M252 1042q37 0 63.5 -26.5t26.5 -61.5q0 -37 -26.5 -63.5t-63.5 -26.5t-62.5 26.5t-25.5 63.5q0 36 26 62t62 26zM252 180q37 0 63.5 -26.5t26.5 -63.5q0 -78 -57 -151t-97 -91l-24 37q58 45 69 119q-29 6 -49 30.5t-20 55.5q0 37 25.5 63.5t62.5 26.5z" />
    <glyph glyph-name="less" unicode="&#x3c;" horiz-adv-x="915" 
d="M752 948l-412 -272l412 -275v-137l-588 412l588 409v-137z" />
    <glyph glyph-name="equal" unicode="=" horiz-adv-x="868" 
d="M164 711v92h541v-92h-541zM164 494v92h541v-92h-541z" />
    <glyph glyph-name="greater" unicode="&#x3e;" horiz-adv-x="917" 
d="M164 1085l590 -409l-590 -412v137l411 275l-411 272v137z" />
    <glyph glyph-name="question" unicode="?" horiz-adv-x="1087" 
d="M371 180q37 0 63.5 -26.5t26.5 -63.5t-26.5 -62.5t-63.5 -25.5t-62.5 25.5t-25.5 62.5t25.5 63.5t62.5 26.5zM813 1356q111 -105 111 -260q0 -135 -84 -250q-11 -16 -25.5 -32.5t-25.5 -29t-30 -30t-28.5 -26t-31.5 -28.5t-29 -26q-46 -40 -70 -62t-59.5 -62t-53 -72
t-31.5 -77t-14 -94h-143q0 154 92 287q25 35 58.5 70.5t58.5 58.5t67 59q41 36 64.5 57.5t54.5 55.5t47 61.5t27.5 64t11.5 75.5q0 100 -73.5 161t-196.5 64h-10q-134 0 -250 -59q-24 -13 -45.5 -27t-30.5 -21l-10 -8v172q155 86 336 86h12q187 -3 301 -108z" />
    <glyph glyph-name="at" unicode="@" horiz-adv-x="1771" 
d="M1239 1405q125 -43 213 -131q188 -185 147 -508q-22 -174 -102 -260q-81 -90 -199 -90q-74 0 -131.5 40t-81.5 105q-53 -76 -133 -121t-168 -45q-135 0 -218 101.5t-66 244.5q19 143 127 244.5t243 101.5q75 0 137 -33.5t101 -92.5l14 114h113l-43 -342
q-24 -225 119 -225q72 0 117.5 72.5t58.5 185.5q16 132 -6 238.5t-83.5 186t-172.5 122.5t-264 43q-141 0 -262.5 -50t-206.5 -136t-139.5 -197.5t-69.5 -237.5v-4q-15 -125 11.5 -237t90 -198t173 -136.5t249.5 -50.5h4q116 0 234.5 42t209.5 117l48 -61
q-109 -92 -238.5 -141.5t-263.5 -49.5h-6q-139 0 -271 58q-123 54 -207 151q-86 99 -124 228q-41 134 -23 278v4q18 144 90 279q69 123 180 225q107 96 246 154q137 55 285 55q149 0 268 -43zM815 487q97 0 175.5 75t90.5 179q12 105 -47 179.5t-155 74.5q-97 0 -175 -75
t-92 -179q-12 -105 47.5 -179.5t155.5 -74.5z" />
    <glyph glyph-name="A" unicode="A" horiz-adv-x="1509" 
d="M82 2l674 1460l671 -1460h-157l-154 334h-721l-153 -334h-160zM461 479h590l-295 641z" />
    <glyph glyph-name="B" unicode="B" horiz-adv-x="1495" 
d="M1069 844q77 -36 133 -92q129 -126 129 -312q0 -183 -129 -309q-126 -129 -309 -129h-729v1460h649q151 0 257 -105.5t106 -256.5q0 -149 -107 -256zM307 1319v-438h506q91 0 155 64t64 155t-64 155t-155 64h-506zM893 145q121 0 208 86.5t87 208.5q0 123 -86.5 210
t-208.5 87h-586v-592h586z" />
    <glyph glyph-name="C" unicode="C" horiz-adv-x="1540" 
d="M909 1335q-122 0 -233.5 -47.5t-192.5 -128.5t-128.5 -192.5t-47.5 -233.5t47.5 -233.5t128.5 -192.5t192.5 -128.5t233.5 -47.5q217 0 377 133l90 -112q-94 -76 -215 -121q-119 -43 -252 -43q-157 0 -291 57q-133 59 -237 160q-101 104 -160 237q-57 134 -57 291t57 289
q60 138 160 238q102 102 237 159q142 60 291 60q136 0 252 -45q121 -42 215 -121l-90 -111q-164 133 -377 133z" />
    <glyph glyph-name="D" unicode="D" horiz-adv-x="1492" 
d="M1116 1249q99 -99 156 -231t57 -285q0 -152 -57 -284q-57 -135 -156 -234q-105 -102 -233 -156q-132 -57 -283 -57h-436v1460h436q151 0 283 -57q133 -56 233 -156zM600 145q159 0 294 79t213.5 214.5t78.5 294.5t-78.5 294t-213.5 213.5t-294 78.5h-293v-1174h293z" />
    <glyph glyph-name="E" unicode="E" horiz-adv-x="1339" 
d="M307 748v-603h889l-31 -143h-1001v1460h981v-143h-838v-428h699v-143h-699z" />
    <glyph glyph-name="F" unicode="F" horiz-adv-x="1267" 
d="M164 2v1460h981v-143h-838v-428h719l-20 -143h-699v-746h-143z" />
    <glyph glyph-name="G" unicode="G" horiz-adv-x="1568" 
d="M754 717l30 143h621v-727l-31 -22l-8 -5q-9 -5 -21.5 -12t-31.5 -16.5t-43 -19.5t-53 -20t-63.5 -19t-72 -16t-82.5 -11t-90 -4q-174 0 -311 57q-137 55 -238 162q-95 99 -145.5 235.5t-50.5 290.5t50.5 289t145.5 235q96 105 238 162q145 60 311 60q136 0 252 -45
q114 -39 217 -121l-90 -111q-169 133 -379 133q-121 0 -222 -34t-170 -91.5t-117.5 -135.5t-70.5 -163.5t-22 -177.5t22 -178t70.5 -163.5t117.5 -135t170 -91.5t222 -34q155 0 281 49q10 3 72 31v506h-508z" />
    <glyph glyph-name="H" unicode="H" horiz-adv-x="1492" 
d="M1186 834v628h143v-1460h-143v688h-879v-688h-143v1460h143v-628h879z" />
    <glyph glyph-name="I" unicode="I" horiz-adv-x="471" 
d="M164 2v1460h143v-1460h-143z" />
    <glyph glyph-name="J" unicode="J" horiz-adv-x="1179" 
d="M872 463v999h144v-999q0 -198 -142 -340q-141 -141 -342 -141q-143 0 -256 73q-112 69 -174 193l127 63q44 -86 125 -136t178 -50q141 0 240.5 99t99.5 239z" />
    <glyph glyph-name="K" unicode="K" horiz-adv-x="1394" 
d="M1227 1462l-535 -565l621 -895h-174l-547 789l-285 -302v-487h-143v1460h143v-766l723 766h197z" />
    <glyph glyph-name="L" unicode="L" horiz-adv-x="1155" 
d="M307 1462v-1317h705l-21 -143h-827v1460h143z" />
    <glyph glyph-name="M" unicode="M" horiz-adv-x="1859" 
d="M930 594l694 883l72 -1475h-144l-53 1083l-569 -725l-570 725l-53 -1083h-143l72 1475z" />
    <glyph glyph-name="N" unicode="N" horiz-adv-x="1495" 
d="M1188 350v1112h143v-1482l-1024 1124v-1102h-143v1473z" />
    <glyph glyph-name="O" unicode="O" horiz-adv-x="1818" 
d="M1436 1260q102 -99 159 -238q60 -138 60 -289q0 -149 -60 -291q-57 -135 -159 -237q-100 -100 -238 -160q-132 -57 -289 -57t-291 57q-133 59 -237 160q-101 104 -160 237q-57 134 -57 291t57 289q60 138 160 238q102 102 237 159q142 60 291 60q151 0 289 -60
q139 -57 238 -159zM909 131q122 0 233.5 47.5t192.5 128.5t128.5 192.5t47.5 233.5t-47.5 233.5t-128.5 192.5t-192.5 128.5t-233.5 47.5t-233.5 -47.5t-192.5 -128.5t-128.5 -192.5t-47.5 -233.5t47.5 -233.5t128.5 -192.5t192.5 -128.5t233.5 -47.5z" />
    <glyph glyph-name="P" unicode="P" horiz-adv-x="1433" 
d="M770 1462q206 0 354 -145q70 -70 108 -162t38 -192t-38 -192.5t-108 -162.5q-150 -147 -354 -147h-463v-459h-143v1460h606zM770 604q147 0 251.5 105.5t104.5 253.5t-104 252t-252 104h-463v-715h463z" />
    <glyph glyph-name="Q" unicode="Q" horiz-adv-x="1820" 
d="M1597 442q-54 -129 -159 -237q-41 -41 -70 -62l289 -364h-184l-228 287q-5 -2 -20.5 -10t-24.5 -11q-134 -57 -291 -57q-154 0 -288 57q-138 60 -238 160q-106 110 -160 237q-59 139 -59 291q0 153 59 289q54 132 160 238q99 102 238 159q142 60 288 60q149 0 291 -60
q134 -55 238 -159t159 -238q60 -138 60 -289q0 -149 -60 -291zM1155 182l-367 461h183l307 -387q110 85 172.5 209.5t62.5 267.5q0 122 -48 233.5t-128.5 192.5t-192.5 128.5t-235 47.5q-122 0 -233.5 -47.5t-192.5 -128.5t-128.5 -192.5t-47.5 -233.5t47.5 -233.5
t128.5 -192.5t192.5 -128.5t233.5 -47.5q129 0 246 51z" />
    <glyph glyph-name="R" unicode="R" horiz-adv-x="1427" 
d="M1122 608q-102 -102 -231 -131l393 -475h-186l-381 459h-410v-459h-143v1460h604q209 0 354 -145q71 -71 109.5 -163t38.5 -191t-38.5 -191.5t-109.5 -163.5zM307 1319v-715h461q149 0 253.5 105.5t104.5 253.5t-104.5 252t-253.5 104h-461z" />
    <glyph glyph-name="S" unicode="S" horiz-adv-x="1368" 
d="M1026 668q80 -57 127 -131q51 -85 51 -185q0 -174 -151 -278q-133 -92 -342 -92q-78 0 -150 14t-124 35t-99 49.5t-76 53.5t-53.5 51t-32.5 37.5t-12 17.5l121 75l11 -13q10 -14 34.5 -38t54.5 -45q134 -94 326 -94q168 0 260 65q90 63 90 162q0 116 -117 199
q-91 65 -303 143q-217 86 -305 146q-75 52 -115 112q-47 74 -47 164q0 175 148 266q130 80 356 80q76 0 154 -15.5t134 -35.5t106 -44.5t71 -37t28 -18.5l-38 -60l-41 -59q-2 2 -21.5 14t-60.5 31.5t-89 37.5t-114 31t-129 13q-189 0 -281 -57q-80 -53 -80 -146
q0 -89 101 -160q76 -52 276 -129q81 -31 122 -48t103.5 -48t106.5 -63z" />
    <glyph glyph-name="T" unicode="T" horiz-adv-x="1310" 
d="M123 1319v143h1065v-143h-461v-1317h-143v1317h-461z" />
    <glyph glyph-name="U" unicode="U" horiz-adv-x="1492" 
d="M1186 565v897h143v-897q0 -278 -172 -436q-79 -73 -188 -111q-98 -36 -224 -36q-123 0 -221 36q-109 38 -188 111q-172 158 -172 436v897h143v-897q0 -94 25.5 -170.5t67.5 -125.5t99.5 -82.5t118.5 -47.5t127 -14q67 0 128 14t119 47.5t100.5 82.5t68 125.5t25.5 170.5z
" />
    <glyph glyph-name="V" unicode="V" horiz-adv-x="1509" 
d="M754 344l516 1118h157l-673 -1460l-672 1460h158z" />
    <glyph glyph-name="W" unicode="W" horiz-adv-x="2224" 
d="M1563 373l366 1089h152l-504 -1497l-465 1122l-463 -1122l-506 1497h152l367 -1089l450 1089z" />
    <glyph glyph-name="X" unicode="X" horiz-adv-x="1474" 
d="M1292 1462l-471 -717l490 -743h-172l-402 612l-403 -612h-170l487 743l-471 717h172l385 -585l385 585h170z" />
    <glyph glyph-name="Y" unicode="Y" horiz-adv-x="1277" 
d="M1024 1462h172l-485 -737v-723h-144v723l-485 737h172l385 -585z" />
    <glyph glyph-name="Z" unicode="Z" horiz-adv-x="1495" 
d="M1315 1462l-883 -1317h899v-143h-1167l883 1317h-809v143h1077z" />
    <glyph glyph-name="bracketleft" unicode="[" horiz-adv-x="606" 
d="M164 -51v1513h278v-112h-166v-1289h166v-112h-278z" />
    <glyph glyph-name="backslash" unicode="\" horiz-adv-x="696" 
d="M164 1464h112l256 -1462h-112z" />
    <glyph glyph-name="bracketright" unicode="]" horiz-adv-x="606" 
d="M164 1350v112h278v-1513h-278v112h166v1289h-166z" />
    <glyph glyph-name="asciicircum" unicode="^" horiz-adv-x="921" 
d="M164 848l297 618l297 -618h-125l-172 379l-172 -379h-125z" />
    <glyph glyph-name="underscore" unicode="_" horiz-adv-x="964" 
d="M164 -86v92h637v-92h-637z" />
    <glyph glyph-name="grave" unicode="`" horiz-adv-x="753" 
d="M164 1382l65 105l361 -248l-45 -72z" />
    <glyph glyph-name="a" unicode="a" 
d="M786 1462q107 0 204 -39.5t171 -113.5q74 -75 114 -172.5t40 -202.5v-932h-144v123q-233 -154 -499 -154q-225 0 -363 129q-145 139 -145 375q0 110 39 199q41 93 116 153q148 121 420 121q206 0 432 -84v80q0 160 -112.5 272.5t-272.5 112.5q-44 0 -89 -2.5t-83.5 -7.5
t-75.5 -11t-68 -12.5t-58 -13t-47.5 -12.5t-35 -11t-22.5 -7l-8 -3l-53 123q10 4 30.5 11t76 22t115 26.5t146 21t172.5 9.5zM692 84q250 0 479 172v504q-204 76 -403 76q-202 0 -331.5 -93t-129.5 -268q0 -174 105 -282.5t280 -108.5z" />
    <glyph glyph-name="b" unicode="b" horiz-adv-x="1495" 
d="M1069 844q77 -36 133 -92q129 -129 129 -312q0 -180 -129 -309t-311 -129h-727v1460h647q151 0 258 -106t107 -256q0 -149 -107 -256zM307 1319v-438h504q92 0 156.5 64t64.5 155t-64.5 155t-156.5 64h-504zM891 145q123 0 210 86.5t87 208.5q0 123 -87 210t-210 87h-584
v-592h584z" />
    <glyph glyph-name="c" unicode="c" horiz-adv-x="1542" 
d="M909 1335q-122 0 -233.5 -47.5t-192.5 -128.5t-128.5 -192.5t-47.5 -233.5t47.5 -233.5t128.5 -192.5t192.5 -128.5t233.5 -47.5q214 0 379 133l90 -112q-102 -79 -215 -121q-122 -43 -254 -43q-154 0 -288 57q-138 60 -238 160q-104 104 -160 237q-59 139 -59 291
q0 153 59 289q57 137 160 238q99 102 238 159q142 60 288 60q135 0 254 -45q113 -39 215 -121l-90 -111q-169 133 -379 133z" />
    <glyph glyph-name="d" unicode="d" horiz-adv-x="1492" 
d="M1116 1249q99 -99 156 -231t57 -285q0 -152 -57 -284q-57 -135 -156 -234q-105 -102 -233 -156q-132 -57 -283 -57h-436v1460h436q151 0 283 -57q133 -56 233 -156zM600 145q159 0 294 79t213.5 214.5t78.5 294.5t-78.5 294t-213.5 213.5t-294 78.5h-293v-1174h293z" />
    <glyph glyph-name="e" unicode="e" horiz-adv-x="1744" 
d="M1581 770h-1274v-37q0 -123 48 -235t129.5 -193.5t193.5 -129.5t235 -48q302 0 486 217l108 -92q-104 -128 -252 -197q-154 -71 -342 -71q-153 0 -292 59q-135 57 -238 160q-106 110 -160 237q-59 139 -59 293t50.5 291t145.5 238q94 99 236 161q140 58 311 58
q147 0 269 -49q114 -44 208 -138q88 -86 137.5 -201.5t55.5 -246.5zM907 1337q-241 0 -381 -112.5t-196 -331.5h1097q-26 203 -170.5 323.5t-349.5 120.5z" />
    <glyph glyph-name="f" unicode="f" horiz-adv-x="1118" 
d="M164 2v1460h831v-143h-688v-428h567l-20 -143h-547v-746h-143z" />
    <glyph glyph-name="g" unicode="g" horiz-adv-x="1476" 
d="M1169 1315v147h144v-979q0 -260 -195 -395q-151 -106 -383 -106q-89 0 -176 15.5t-144 35t-108 44t-69 36t-27 18.5l86 94q43 -30 117 -61q156 -60 321 -60q28 0 56.5 2t73.5 11t84 23t81 41.5t71.5 64t48.5 92.5t19 125v84q-168 -176 -430 -176q-128 0 -235 43
q-104 43 -182 121q-158 158 -158 393t158 393q79 79 182 119q107 43 235 43q249 0 430 -168zM739 494q83 0 154 19.5t115.5 47t80.5 64.5t52.5 63t27.5 51v420q-22 28 -53 56t-84 64t-130 58.5t-163 22.5q-190 0 -311 -123.5t-121 -308.5t121 -309.5t311 -124.5z" />
    <glyph glyph-name="h" unicode="h" horiz-adv-x="1492" 
d="M1186 834v630h143v-1462h-143v688h-879v-688h-143v1462h143v-630h879z" />
    <glyph glyph-name="i" unicode="i" horiz-adv-x="471" 
d="M164 2v1462h143v-1462h-143z" />
    <glyph glyph-name="j" unicode="j" horiz-adv-x="1179" 
d="M872 463v1001h144v-1001q0 -95 -37 -183.5t-105 -156.5q-67 -68 -155 -104.5t-184 -36.5q-138 0 -259 73q-114 72 -174 193l127 65q44 -88 126 -138t180 -50q139 0 238 99t99 239z" />
    <glyph glyph-name="k" unicode="k" horiz-adv-x="1415" 
d="M1135 223q71 -98 157 -98v-143q-86 0 -159 45q-63 40 -115 112q-27 38 -57 95t-45 90.5t-48 109.5q-30 71 -49.5 114.5t-46 93.5t-49.5 79.5t-53 53t-62 32.5l-301 -318v-487h-143v1462h143v-784l723 784h199l-516 -546q10 -5 14 -9q70 -44 121 -114q64 -90 153 -306
q32 -74 45 -103t39 -79.5t50 -83.5z" />
    <glyph glyph-name="l" unicode="l" horiz-adv-x="1075" 
d="M307 1464v-1319h625l-21 -143h-747v1462h143z" />
    <glyph glyph-name="m" unicode="m" horiz-adv-x="2250" 
d="M1638 1485q188 0 318 -133q131 -131 131 -318v-1032h-143v991q0 166 -90 260.5t-240 94.5q-82 0 -154 -32.5t-116 -75t-79 -97t-48.5 -85.5t-20.5 -54v-1002h-143v991q0 166 -90 260.5t-240 94.5q-77 0 -145.5 -28.5t-111.5 -66.5t-79.5 -90t-52 -84t-27.5 -63v-1014
h-143v1462h143v-209q160 230 441 230q184 0 317 -133q63 -63 100 -154q158 287 473 287z" />
    <glyph glyph-name="n" unicode="n" 
d="M1157 1352q158 -146 158 -396v-954h-144v975q0 181 -102.5 283t-282.5 102q-96 0 -177 -26.5t-130.5 -61.5t-89 -82t-55.5 -76.5t-27 -56.5v-1057h-143v1462h143v-196q172 217 479 217q100 0 201 -33q103 -36 170 -100z" />
    <glyph glyph-name="o" unicode="o" horiz-adv-x="1818" 
d="M1436 1260q101 -98 159 -236q60 -142 60 -291t-60 -291q-57 -135 -159 -237q-100 -100 -238 -160q-134 -57 -289 -57q-157 0 -291 57q-133 59 -237 160q-106 110 -160 237q-57 134 -57 291t57 291q55 131 160 236q102 102 237 159q142 60 291 60q147 0 289 -60
q139 -57 238 -159zM909 131q122 0 233.5 47.5t192.5 128.5t128.5 192.5t47.5 233.5t-47.5 233.5t-128.5 192.5t-192.5 128.5t-233.5 47.5q-123 0 -234.5 -47.5t-192 -128.5t-128 -192.5t-47.5 -233.5t47.5 -233.5t128 -192.5t192 -128.5t234.5 -47.5z" />
    <glyph glyph-name="p" unicode="p" horiz-adv-x="1431" 
d="M768 1464q100 0 191.5 -38t162.5 -109q70 -70 108 -162t38 -192t-38 -192.5t-108 -162.5t-162 -107.5t-192 -37.5h-461v-461h-143v1462h604zM768 606q148 0 252 104.5t104 252.5t-104 253t-252 105h-461v-715h461z" />
    <glyph glyph-name="q" unicode="q" horiz-adv-x="1820" 
d="M1597 442q-54 -129 -159 -237q-6 -5 -30.5 -27.5t-39.5 -34.5l289 -364h-184l-228 289q-7 -4 -45 -23q-134 -57 -289 -57q-156 0 -290 57q-132 57 -238 160q-106 110 -160 237q-59 139 -59 291t59 291q55 131 160 236q104 104 238 159q142 60 290 60q147 0 289 -60
q139 -57 238 -159q103 -103 159 -236q60 -142 60 -291t-60 -291zM1155 182l-367 461h185l305 -387q110 85 172.5 209.5t62.5 267.5q0 122 -47.5 233.5t-128.5 192.5t-192.5 128.5t-233.5 47.5q-123 0 -235 -47.5t-192.5 -128.5t-128.5 -192.5t-48 -233.5t48 -233.5
t128.5 -192.5t192.5 -128.5t235 -47.5q127 0 244 51z" />
    <glyph glyph-name="r" unicode="r" horiz-adv-x="1495" 
d="M936 342q141 -197 395 -197v-143q-328 0 -516 260q-67 96 -100 201h-408v-461h-143v1462h606q204 0 354 -147q70 -70 108 -162t38 -192t-38 -192.5t-108 -162.5q-113 -110 -260 -137q27 -71 72 -129zM307 1321v-715h463q148 0 252 104.5t104 252.5t-104 253t-252 105
h-463z" />
    <glyph glyph-name="s" unicode="s" horiz-adv-x="1368" 
d="M1028 668q82 -58 125 -131q51 -85 51 -185q0 -176 -151 -278q-133 -92 -342 -92q-78 0 -150 14t-124 35t-99 49.5t-76 53.5t-53.5 51t-32.5 37.5t-12 17.5l123 75h-2l11 -13q10 -13 34.5 -37t54.5 -46q139 -94 326 -94q162 0 262 68q88 60 88 159q0 116 -117 199
q-89 63 -301 143q-222 87 -307 146q-76 52 -115 114q-47 71 -47 162q0 175 148 266q133 82 356 82q89 0 178.5 -19.5t158 -51t100.5 -48.5t56 -32l3 -2l-41 -60l-41 -59q-2 2 -21.5 14t-60.5 32t-89 38t-114 31.5t-129 13.5q-186 0 -281 -59q-80 -53 -80 -146
q0 -90 101 -158q34 -24 85 -49t84 -38t107 -42q6 -2 34.5 -13.5t36.5 -15t34 -14t36 -15t33 -15t35 -16.5l32 -16t33.5 -18t29.5 -18t30 -20z" />
    <glyph glyph-name="t" unicode="t" horiz-adv-x="1310" 
d="M123 1321v143h1065v-143h-461v-1319h-143v1319h-461z" />
    <glyph glyph-name="u" unicode="u" 
d="M1171 256v1208h144v-1462h-144v123q-240 -154 -501 -154q-223 0 -361 129q-145 139 -145 375v989h143v-989q0 -173 105 -282t278 -109q252 0 481 172z" />
    <glyph glyph-name="v" unicode="v" horiz-adv-x="1509" 
d="M756 344l514 1120h157l-671 -1462l-674 1462h158z" />
    <glyph glyph-name="w" unicode="w" horiz-adv-x="2224" 
d="M1563 373l366 1091h152l-504 -1499l-465 1122l-463 -1122l-506 1499h152l367 -1091l450 1089z" />
    <glyph glyph-name="x" unicode="x" horiz-adv-x="1476" 
d="M1294 1464l-471 -719l490 -743h-172l-402 612l-403 -612h-172l489 743l-471 719h172l385 -587l385 587h170z" />
    <glyph glyph-name="y" unicode="y" horiz-adv-x="1437" 
d="M1130 780v684h144v-981q0 -260 -195 -395q-156 -106 -385 -106q-89 0 -176 15.5t-143.5 34.5t-107.5 44.5t-68 36.5t-27 18l86 94h-2l14 -9q13 -8 42 -23t63 -29q151 -60 319 -60q27 0 56.5 2.5t74 11t84 23t81.5 42t72 64t49 92.5t19 124v125q-172 -176 -432 -176
q-126 0 -233 43q-106 44 -182 120q-77 77 -118.5 179t-41.5 215v495h143v-495q0 -185 121.5 -309.5t310.5 -124.5q83 0 154.5 20t116 47.5t81 64.5t53 62.5t27.5 50.5z" />
    <glyph glyph-name="z" unicode="z" horiz-adv-x="1497" 
d="M1317 1464l-883 -1319h899v-143h-1169l883 1319h-809v143h1079z" />
    <glyph glyph-name="braceleft" unicode="{" horiz-adv-x="610" 
d="M444 1374q-30 0 -73 -10t-66 -33q-18 -18 -18 -45q0 -81 73 -219q25 -50 36 -73.5t23.5 -66t12.5 -77.5q0 -86 -59 -133q59 -50 59 -135q0 -34 -12.5 -76t-23.5 -65.5t-36 -73.5q-23 -45 -36.5 -74.5t-25 -70.5t-11.5 -77q0 -27 18 -45q23 -23 66 -33t73 -10l2 -112h-2
q-144 0 -217 75q-53 50 -53 125q0 48 14.5 100.5t30 86.5t41.5 84q59 116 59 166q0 38 -26 53q-36 24 -129 24v113q84 0 129 25q26 15 26 53q0 50 -59 166q-26 50 -41.5 84t-30 86t-14.5 100q0 74 53 127q32 32 83 50t80 21t54 3h2z" />
    <glyph glyph-name="bar" unicode="|" horiz-adv-x="440" 
d="M164 -217v1835h112v-1835h-112z" />
    <glyph glyph-name="braceright" unicode="}" horiz-adv-x="610" 
d="M291 850q0 -38 26 -53q45 -25 129 -25v-113q-93 0 -129 -24q-26 -15 -26 -53q0 -50 59 -166q26 -50 41.5 -84t30 -86.5t14.5 -100.5q0 -75 -53 -125q-73 -75 -217 -75h-2l2 112q30 0 73 10t66 33q19 19 19 45q0 36 -12 77.5t-25 70t-37 74.5q-25 50 -36 73.5t-23.5 65.5
t-12.5 76q0 84 60 135q-60 48 -60 133q0 35 12.5 77.5t23.5 66t36 73.5q24 45 37 73t25 69t12 77q0 26 -19 45q-23 23 -66 33t-73 10l-2 113h2q25 0 54 -3t80 -21t83 -50q53 -53 53 -127q0 -48 -14.5 -100t-30 -86t-41.5 -84q-59 -116 -59 -166z" />
    <glyph glyph-name="asciitilde" unicode="~" horiz-adv-x="960" 
d="M612 862q73 0 131 -55q54 -57 54 -141h-113q0 39 -21.5 61.5t-50.5 22.5q-18 0 -35 -5.5t-26.5 -11t-30.5 -18.5q-26 -18 -42 -27t-49 -19t-69 -10q-88 0 -145 66q-51 61 -51 133h112q0 -31 22.5 -58.5t61.5 -27.5q8 0 15.5 1t13 2t13 3.5t11.5 4t12 6t10.5 6t12 7.5
t11.5 7q25 17 40 25t47 18t66 10z" />
    <glyph glyph-name="exclamdown" unicode="&#xa1;" horiz-adv-x="503" 
d="M207 958h92l25 -1161h-144zM252 1081q-37 0 -62.5 26.5t-25.5 63.5t25.5 63t62.5 26t62.5 -26t25.5 -63t-25.5 -63.5t-62.5 -26.5z" />
    <glyph glyph-name="cent" unicode="&#xa2;" horiz-adv-x="1163" 
d="M920 983q-102 102 -250 111v-754q144 6 250 109l79 -80q-136 -136 -329 -142v-225h-113v234q-145 28 -250 133q-143 143 -143 348q0 98 36.5 188t106.5 158q105 105 250 133v268h113v-258q195 -9 329 -143zM276 717q0 -131 79 -232.5t202 -134.5v731q-123 -33 -202 -134
t-79 -230z" />
    <glyph glyph-name="sterling" unicode="&#xa3;" horiz-adv-x="1409" 
d="M1145 205l100 -49l-1 -2q-53 -95 -158 -141q-74 -33 -164 -33q-101 0 -301 55q-49 14 -75.5 21t-69.5 16t-71.5 12t-63 2t-62.5 -8l-46 -10l-40 88l32 26q63 55 103 112t57.5 106t19.5 109t-5 106t-23 112h-213v92h188q-35 144 -35 230q0 78 27 150.5t79.5 133t139.5 97
t197 36.5q71 0 139.5 -21.5t114.5 -51t85 -63t56 -53t21 -26.5l-91 -67q0 2 -10 13.5t-33 33t-49 39.5q-113 84 -233 84q-82 0 -147 -26t-104 -70t-59 -97t-20 -112q0 -74 39 -230h635v-92h-612q35 -146 22 -260q-15 -145 -119 -270q74 -5 256 -54q178 -51 271 -51
q46 0 86 12t63 26.5t41.5 33.5t24 27.5t8.5 13.5z" />
    <glyph glyph-name="currency" unicode="&#xa4;" horiz-adv-x="1165" 
d="M932 696q0 -110 -66 -202l135 -138l-79 -80l-136 138q-94 -66 -202 -66q-111 0 -205 66l-135 -138l-80 80l135 138q-66 92 -66 202q0 108 66 203l-135 137l80 80l135 -137q89 65 205 65q113 0 202 -65l136 137l79 -80l-135 -137q66 -95 66 -203zM416 530q69 -69 167 -69
t167 69q69 66 69 166q0 97 -69 166q-70 70 -166 70q-98 0 -168 -70t-70 -166q0 -99 70 -166z" />
    <glyph glyph-name="yen" unicode="&#xa5;" horiz-adv-x="1439" 
d="M1276 1464l-483 -739v-100h305v-93h-305v-124h305v-93h-305v-313h-144v313h-305v93h305v124h-305v93h305v100l-485 739h172l385 -587l385 587h170z" />
    <glyph glyph-name="section" unicode="&#xa7;" horiz-adv-x="1179" 
d="M936 301q-38 -38 -76 -59q12 -9 21 -15q135 -105 135 -260q0 -145 -113 -241q-114 -91 -285 -91q-71 0 -134 12.5t-106.5 30t-82 43.5t-60 46t-40 44.5t-23 32.5t-8.5 15l102 47q21 -39 72 -78q109 -80 280 -80q128 0 206.5 60.5t78.5 158.5q0 36 -9 65.5t-30.5 55.5
t-46 46t-65.5 41.5t-77.5 38t-94.5 40.5q-47 18 -76.5 30.5t-72 32.5t-70.5 39t-58 44t-50.5 55t-33.5 65q-44 117 23 230q53 83 149 122q-42 23 -82 52q-133 98 -133 243q0 147 119 228q104 73 285 73q66 0 133 -14.5t109 -30.5t87 -42t54 -32.5t24 -17.5l-37 -43l-35 -45
q-3 3 -17 13t-46.5 27.5t-70.5 33.5t-92.5 27.5t-108.5 11.5q-26 0 -52.5 -2.5t-61.5 -8.5t-64.5 -20t-56 -33.5t-41.5 -51.5t-15 -73q0 -46 19 -82.5t62.5 -67.5t91.5 -53.5t128 -54.5h6v-2q2 0 10 -4q70 -28 99.5 -40t81.5 -38.5t87 -52.5q70 -54 101 -110q41 -71 41 -158
q0 -117 -80 -203zM735 309q78 22 123 74t45 121q0 109 -96 178q-69 51 -236 115q-62 -3 -118 -21q-79 -25 -113 -86q-41 -64 -14 -131q13 -34 40 -63t73.5 -55t82 -41.5t99.5 -41.5q13 -6 114 -49z" />
    <glyph glyph-name="dieresis" unicode="&#xa8;" horiz-adv-x="903" 
d="M264 1343q40 0 69 -29t29 -69q0 -41 -29 -70.5t-69 -29.5q-41 0 -70.5 29.5t-29.5 70.5q0 40 29.5 69t70.5 29zM639 1343q41 0 70.5 -29t29.5 -69q0 -41 -29.5 -70.5t-70.5 -29.5q-40 0 -69 29.5t-29 70.5q0 40 29 69t69 29z" />
    <glyph glyph-name="copyright" unicode="&#xa9;" horiz-adv-x="1363" 
d="M700 1155q-89 0 -151 -61.5t-62 -149.5q0 -89 62 -151t151 -62q74 0 131 45l58 -71q-84 -66 -189 -66q-126 0 -215.5 89.5t-89.5 215.5t89.5 214.5t215.5 88.5q106 0 189 -65l-58 -72q-54 45 -131 45zM682 1462q102 0 197.5 -39.5t169.5 -111.5q72 -74 111.5 -169.5
t39.5 -197.5q0 -212 -151 -366q-73 -73 -168.5 -112.5t-198.5 -39.5q-215 0 -367 152q-151 151 -151 366q0 103 39 198.5t112 168.5q154 151 367 151zM682 518q175 0 300.5 125t125.5 301q0 175 -125.5 300.5t-300.5 125.5q-176 0 -301 -125.5t-125 -300.5
q0 -177 124.5 -301.5t301.5 -124.5z" />
    <glyph glyph-name="registered" unicode="&#xae;" horiz-adv-x="1363" 
d="M682 1462q213 0 367 -151q73 -73 112 -168.5t39 -198.5q0 -215 -151 -366q-152 -152 -367 -152t-367 152q-151 151 -151 366q0 103 39 198.5t112 168.5q154 151 367 151zM682 518q177 0 301.5 124.5t124.5 301.5q0 175 -125 300.5t-301 125.5t-301 -125.5t-125 -300.5
q0 -177 124.5 -301.5t301.5 -124.5zM750 842q59 -101 163 -101v-92q-139 0 -219 109q-30 40 -43 73h-96v-178h-92v596h221q86 0 147.5 -61.5t61.5 -147.5q0 -68 -40 -122t-103 -76zM555 1157v-233h129q47 0 82 34.5t35 81.5q0 49 -34.5 83t-82.5 34h-129z" />
    <glyph glyph-name="acute" unicode="&#xb4;" horiz-adv-x="751" 
d="M588 1382l-381 -215l-43 72l360 248z" />
    <glyph glyph-name="cedilla" unicode="&#xb8;" horiz-adv-x="696" 
d="M287 -102q129 -11 187 -65t58 -126q0 -37 -19 -71.5t-59.5 -64.5t-115.5 -46t-174 -10v90q141 0 209 35q47 23 47 67q0 34 -31 51q-51 31 -139 31h-55v285h92v-176z" />
    <glyph glyph-name="onequarter" unicode="&#xbc;" horiz-adv-x="1386" 
d="M924 1464h92l-654 -1462h-92zM328 623h-82v757h-82v84h164v-841zM1155 844v-568h68v-71h-68v-203h-82v203h-469l457 639h94zM1073 276v443l-319 -443h319z" />
    <glyph glyph-name="onehalf" unicode="&#xbd;" horiz-adv-x="1511" 
d="M924 1464h92l-654 -1462h-92zM328 623h-82v757h-82v84h164v-841zM1266 479l-305 -393h387v-84h-557l409 528q30 39 36.5 83t-11.5 83q-19 40 -58.5 62t-91.5 22h-6q-77 0 -145 -35q-15 -6 -28 -13.5t-18 -11.5l-6 -5l-55 61q10 10 33 26t86.5 39t132.5 23h6q76 0 139 -37
q62 -42 86 -94q28 -61 19 -129t-53 -125z" />
    <glyph glyph-name="threequarters" unicode="&#xbe;" horiz-adv-x="1718" 
d="M1217 1464h92l-654 -1462h-92zM1487 844v-568h67v-71h-67v-203h-84v203h-467l455 639h96zM1403 276v443l-318 -443h318zM774 872q0 -125 -94 -213q-88 -79 -221 -79q-104 0 -183 55q-82 57 -112 145l80 29q23 -64 83 -104.5t132 -40.5q98 0 163.5 59.5t65.5 148.5
q0 94 -60.5 151.5t-160.5 59.5l-127 -4l238 299h-347v86h525l-238 -299q41 -6 76 -20q51 -19 96 -64q84 -84 84 -209z" />
    <glyph glyph-name="questiondown" unicode="&#xbf;" horiz-adv-x="1087" 
d="M717 1081q-37 0 -63.5 26.5t-26.5 63.5t26.5 63t63.5 26t62.5 -26t25.5 -63t-25.5 -63.5t-62.5 -26.5zM274 -94q-110 104 -110 260q0 135 84 250q11 16 25.5 32.5t25.5 29t30 30t28.5 26t31.5 28.5t29 26q46 40 69.5 62t59.5 61.5t53.5 71.5t31 77t13.5 94h143
q0 -153 -92 -286q-56 -79 -184 -189q-53 -46 -81 -73t-61.5 -68t-48 -82.5t-14.5 -89.5q0 -100 74 -161t197 -64h10q134 0 250 59q24 13 45.5 26.5t30.5 21.5l10 7v-172q-155 -86 -336 -86h-13q-186 3 -301 109z" />
    <glyph glyph-name="Agrave" unicode="&#xc0;" horiz-adv-x="1509" 
d="M82 2l674 1460l671 -1460h-157l-154 334h-721l-153 -334h-160zM461 479h590l-295 641zM508 1792l65 104l361 -247l-45 -72z" />
    <glyph glyph-name="Aacute" unicode="&#xc1;" horiz-adv-x="1509" 
d="M82 2l674 1460l671 -1460h-157l-154 334h-721l-153 -334h-160zM461 479h590l-295 641zM1038 1792l-381 -215l-43 72l361 247z" />
    <glyph glyph-name="Acircumflex" unicode="&#xc2;" horiz-adv-x="1509" 
d="M82 2l674 1460l671 -1460h-157l-154 334h-721l-153 -334h-160zM461 479h590l-295 641zM426 1661l328 317l327 -317l-84 -88l-243 254l-242 -254z" />
    <glyph glyph-name="Atilde" unicode="&#xc3;" horiz-adv-x="1509" 
d="M82 2l674 1460l671 -1460h-157l-154 334h-721l-153 -334h-160zM461 479h590l-295 641zM887 1782q73 0 131 -58q53 -56 53 -139h-113q0 38 -21.5 61t-49.5 23q-18 0 -35 -5.5t-26.5 -11t-30.5 -18.5q-25 -17 -41.5 -26.5t-49.5 -19t-69 -9.5q-89 0 -146 63q-51 61 -51 136
h113q0 -32 22.5 -59t61.5 -27q20 0 38 5t28 10.5t32 18.5q78 56 154 56z" />
    <glyph glyph-name="Adieresis" unicode="&#xc4;" horiz-adv-x="1509" 
d="M82 2l674 1460l671 -1460h-157l-154 334h-721l-153 -334h-160zM461 479h590l-295 641zM567 1753q40 0 69.5 -29t29.5 -69q0 -41 -29.5 -71t-69.5 -30q-41 0 -70.5 30t-29.5 71q0 40 29.5 69t70.5 29zM942 1753q41 0 70.5 -29t29.5 -69q0 -41 -29.5 -71t-70.5 -30
q-40 0 -69 30t-29 71q0 40 29 69t69 29z" />
    <glyph glyph-name="Aring" unicode="&#xc5;" horiz-adv-x="1509" 
d="M82 2l674 1460l671 -1460h-157l-154 334h-721l-153 -334h-160zM461 479h590l-295 641zM756 2003q92 0 157.5 -65.5t65.5 -157.5q0 -94 -65.5 -160t-157.5 -66q-94 0 -160 66t-66 160q0 92 66 157.5t160 65.5zM756 1663q47 0 80.5 34t33.5 83q0 47 -33.5 81.5t-80.5 34.5
q-49 0 -83 -34t-34 -82q0 -50 33.5 -83.5t83.5 -33.5z" />
    <glyph glyph-name="AE" unicode="&#xc6;" horiz-adv-x="2283" 
d="M1282 748v-603h858v-143h-1001v412h-602l-281 -412h-174l1001 1462h1037v-143h-838v-430h698v-143h-698zM635 557h504v733z" />
    <glyph glyph-name="Ccedilla" unicode="&#xc7;" horiz-adv-x="1540" 
d="M909 1335q-122 0 -233.5 -47.5t-192.5 -128.5t-128.5 -192.5t-47.5 -233.5t47.5 -233.5t128.5 -192.5t192.5 -128.5t233.5 -47.5q217 0 377 133l90 -112q-94 -76 -215 -121q-119 -43 -252 -43q-157 0 -291 57q-133 59 -237 160q-101 104 -160 237q-57 134 -57 291t57 289
q60 138 160 238q102 102 237 159q142 60 291 60q136 0 252 -45q121 -42 215 -121l-90 -111q-164 133 -377 133zM844 -102q129 -11 187.5 -65t58.5 -126q0 -37 -19.5 -71.5t-59.5 -64.5t-115.5 -46t-174.5 -10v90q141 0 209 35q47 23 47 67q0 34 -31 51q-51 31 -139 31h-55
v285h92v-176z" />
    <glyph glyph-name="Egrave" unicode="&#xc8;" horiz-adv-x="1339" 
d="M307 748v-603h889l-31 -143h-1001v1460h981v-143h-838v-428h699v-143h-699zM457 1792l65 104l361 -247l-45 -72z" />
    <glyph glyph-name="Eacute" unicode="&#xc9;" horiz-adv-x="1339" 
d="M307 748v-603h889l-31 -143h-1001v1460h981v-143h-838v-428h699v-143h-699zM881 1792l-381 -215l-43 72l360 247z" />
    <glyph glyph-name="Ecircumflex" unicode="&#xca;" horiz-adv-x="1339" 
d="M307 748v-603h889l-31 -143h-1001v1460h981v-143h-838v-428h699v-143h-699zM342 1661l328 317l327 -317l-84 -88l-243 254l-242 -254z" />
    <glyph glyph-name="Edieresis" unicode="&#xcb;" horiz-adv-x="1339" 
d="M307 748v-603h889l-31 -143h-1001v1460h981v-143h-838v-428h699v-143h-699zM481 1753q40 0 69.5 -29t29.5 -69q0 -41 -29.5 -71t-69.5 -30q-41 0 -70.5 30t-29.5 71q0 40 29.5 69t70.5 29zM856 1753q41 0 70.5 -29t29.5 -69q0 -41 -29.5 -71t-70.5 -30q-40 0 -69 30
t-29 71q0 40 29 69t69 29z" />
    <glyph glyph-name="Igrave" unicode="&#xcc;" horiz-adv-x="471" 
d="M164 2v1460h143v-1460h-143zM-59 1792l65 104l361 -247l-45 -72z" />
    <glyph glyph-name="Iacute" unicode="&#xcd;" horiz-adv-x="471" 
d="M164 2v1460h143v-1460h-143zM530 1792l-380 -215l-44 72l361 247z" />
    <glyph glyph-name="Icircumflex" unicode="&#xce;" horiz-adv-x="471" 
d="M164 2v1460h143v-1460h-143zM-92 1661l328 317l327 -317l-84 -88l-243 254l-242 -254z" />
    <glyph glyph-name="Idieresis" unicode="&#xcf;" horiz-adv-x="471" 
d="M164 2v1460h143v-1460h-143zM49 1753q40 0 69 -29t29 -69q0 -41 -29 -71t-69 -30q-41 0 -70.5 30t-29.5 71q0 40 29.5 69t70.5 29zM424 1753q41 0 70.5 -29t29.5 -69q0 -41 -29.5 -71t-70.5 -30q-40 0 -69 30t-29 71q0 40 29 69t69 29z" />
    <glyph glyph-name="Eth" unicode="&#xd0;" horiz-adv-x="1492" 
d="M1116 1249q99 -99 156 -231t57 -285q0 -152 -57 -284q-57 -135 -156 -234q-105 -102 -233 -156q-132 -57 -283 -57h-436v1460h436q151 0 283 -57q133 -56 233 -156zM600 145q159 0 294 79t213.5 214.5t78.5 294.5t-78.5 294t-213.5 213.5t-294 78.5h-293v-1174h293z
M35 782v113h444v-113h-444z" />
    <glyph glyph-name="Ntilde" unicode="&#xd1;" horiz-adv-x="1495" 
d="M1188 350v1112h143v-1482l-1024 1124v-1102h-143v1473zM879 1782q73 0 131 -58q53 -56 53 -139h-113q0 38 -21.5 61t-49.5 23q-39 0 -93 -35q-26 -17 -41.5 -26t-48.5 -19t-69 -10q-89 0 -146 63q-51 61 -51 136h113q0 -32 22.5 -59t61.5 -27q20 0 38 5t28 10.5t32 18.5
q78 56 154 56z" />
    <glyph glyph-name="Ograve" unicode="&#xd2;" horiz-adv-x="1818" 
d="M1436 1260q102 -99 159 -238q60 -138 60 -289q0 -149 -60 -291q-57 -135 -159 -237q-100 -100 -238 -160q-132 -57 -289 -57t-291 57q-133 59 -237 160q-101 104 -160 237q-57 134 -57 291t57 289q60 138 160 238q102 102 237 159q142 60 291 60q151 0 289 -60
q139 -57 238 -159zM909 131q122 0 233.5 47.5t192.5 128.5t128.5 192.5t47.5 233.5t-47.5 233.5t-128.5 192.5t-192.5 128.5t-233.5 47.5t-233.5 -47.5t-192.5 -128.5t-128.5 -192.5t-47.5 -233.5t47.5 -233.5t128.5 -192.5t192.5 -128.5t233.5 -47.5zM696 1792l66 104
l360 -247l-45 -72z" />
    <glyph glyph-name="Oacute" unicode="&#xd3;" horiz-adv-x="1818" 
d="M1436 1260q102 -99 159 -238q60 -138 60 -289q0 -149 -60 -291q-57 -135 -159 -237q-100 -100 -238 -160q-132 -57 -289 -57t-291 57q-133 59 -237 160q-101 104 -160 237q-57 134 -57 291t57 289q60 138 160 238q102 102 237 159q142 60 291 60q151 0 289 -60
q139 -57 238 -159zM909 131q122 0 233.5 47.5t192.5 128.5t128.5 192.5t47.5 233.5t-47.5 233.5t-128.5 192.5t-192.5 128.5t-233.5 47.5t-233.5 -47.5t-192.5 -128.5t-128.5 -192.5t-47.5 -233.5t47.5 -233.5t128.5 -192.5t192.5 -128.5t233.5 -47.5zM1120 1792l-381 -215
l-43 72l361 247z" />
    <glyph glyph-name="Ocircumflex" unicode="&#xd4;" horiz-adv-x="1818" 
d="M1436 1260q102 -99 159 -238q60 -138 60 -289q0 -149 -60 -291q-57 -135 -159 -237q-100 -100 -238 -160q-132 -57 -289 -57t-291 57q-133 59 -237 160q-101 104 -160 237q-57 134 -57 291t57 289q60 138 160 238q102 102 237 159q142 60 291 60q151 0 289 -60
q139 -57 238 -159zM909 131q122 0 233.5 47.5t192.5 128.5t128.5 192.5t47.5 233.5t-47.5 233.5t-128.5 192.5t-192.5 128.5t-233.5 47.5t-233.5 -47.5t-192.5 -128.5t-128.5 -192.5t-47.5 -233.5t47.5 -233.5t128.5 -192.5t192.5 -128.5t233.5 -47.5zM582 1661l327 317
l328 -317l-84 -88l-244 254l-241 -254z" />
    <glyph glyph-name="Otilde" unicode="&#xd5;" horiz-adv-x="1818" 
d="M1436 1260q102 -99 159 -238q60 -138 60 -289q0 -149 -60 -291q-57 -135 -159 -237q-100 -100 -238 -160q-132 -57 -289 -57t-291 57q-133 59 -237 160q-101 104 -160 237q-57 134 -57 291t57 289q60 138 160 238q102 102 237 159q142 60 291 60q151 0 289 -60
q139 -57 238 -159zM909 131q122 0 233.5 47.5t192.5 128.5t128.5 192.5t47.5 233.5t-47.5 233.5t-128.5 192.5t-192.5 128.5t-233.5 47.5t-233.5 -47.5t-192.5 -128.5t-128.5 -192.5t-47.5 -233.5t47.5 -233.5t128.5 -192.5t192.5 -128.5t233.5 -47.5zM1040 1782
q73 0 131 -58q54 -57 54 -139h-113q0 38 -22 61t-50 23q-18 0 -35 -5.5t-26.5 -11t-30.5 -18.5q-25 -17 -41.5 -26.5t-49.5 -19t-69 -9.5q-88 0 -145 63q-51 61 -51 136h113q0 -32 22 -59t61 -27q20 0 38 5t29 10.5t32 18.5q24 17 40 26.5t47.5 19.5t65.5 10z" />
    <glyph glyph-name="Odieresis" unicode="&#xd6;" horiz-adv-x="1818" 
d="M1436 1260q102 -99 159 -238q60 -138 60 -289q0 -149 -60 -291q-57 -135 -159 -237q-100 -100 -238 -160q-132 -57 -289 -57t-291 57q-133 59 -237 160q-101 104 -160 237q-57 134 -57 291t57 289q60 138 160 238q102 102 237 159q142 60 291 60q151 0 289 -60
q139 -57 238 -159zM909 131q122 0 233.5 47.5t192.5 128.5t128.5 192.5t47.5 233.5t-47.5 233.5t-128.5 192.5t-192.5 128.5t-233.5 47.5t-233.5 -47.5t-192.5 -128.5t-128.5 -192.5t-47.5 -233.5t47.5 -233.5t128.5 -192.5t192.5 -128.5t233.5 -47.5zM721 1753q40 0 69 -29
t29 -69q0 -41 -29 -71t-69 -30q-41 0 -70.5 30t-29.5 71q0 40 29.5 69t70.5 29zM1096 1753q41 0 70.5 -29t29.5 -69q0 -41 -29.5 -71t-70.5 -30q-40 0 -69.5 30t-29.5 71q0 40 29.5 69t69.5 29z" />
    <glyph glyph-name="multiply" unicode="&#xd7;" horiz-adv-x="888" 
d="M645 997l80 -79l-201 -201l201 -203l-80 -78l-201 201l-200 -201l-80 78l201 203l-201 201l80 79l200 -202z" />
    <glyph glyph-name="Oslash" unicode="&#xd8;" horiz-adv-x="1820" 
d="M1438 1260q103 -103 159 -236q60 -142 60 -291t-60 -291q-54 -129 -159 -237q-106 -103 -238 -160q-134 -57 -291 -57q-128 0 -241 39l-109 -244h-113l127 285q-106 53 -190 137q-106 110 -160 237q-59 139 -59 291t59 291q55 131 160 236q99 102 238 159q142 60 288 60
q141 0 269 -49l84 188h112l-102 -232q105 -62 166 -126zM307 733q0 -170 89.5 -313.5t234.5 -220.5l487 1099q-101 37 -209 37q-122 0 -233.5 -47.5t-192.5 -128.5t-128.5 -192.5t-47.5 -233.5zM909 131q123 0 235 47.5t192.5 128.5t128.5 192.5t48 233.5q0 163 -82 302
t-219 218l-485 -1093q92 -29 182 -29z" />
    <glyph glyph-name="Ugrave" unicode="&#xd9;" horiz-adv-x="1492" 
d="M1186 565v897h143v-897q0 -278 -172 -436q-79 -73 -188 -111q-98 -36 -224 -36q-123 0 -221 36q-109 38 -188 111q-172 158 -172 436v897h143v-897q0 -94 25.5 -170.5t67.5 -125.5t99.5 -82.5t118.5 -47.5t127 -14q67 0 128 14t119 47.5t100.5 82.5t68 125.5t25.5 170.5z
M532 1792l66 104l360 -247l-45 -72z" />
    <glyph glyph-name="Uacute" unicode="&#xda;" horiz-adv-x="1492" 
d="M1186 565v897h143v-897q0 -278 -172 -436q-79 -73 -188 -111q-98 -36 -224 -36q-123 0 -221 36q-109 38 -188 111q-172 158 -172 436v897h143v-897q0 -94 25.5 -170.5t67.5 -125.5t99.5 -82.5t118.5 -47.5t127 -14q67 0 128 14t119 47.5t100.5 82.5t68 125.5t25.5 170.5z
M958 1792l-380 -215l-43 72l360 247z" />
    <glyph glyph-name="Ucircumflex" unicode="&#xdb;" horiz-adv-x="1492" 
d="M1186 565v897h143v-897q0 -278 -172 -436q-79 -73 -188 -111q-98 -36 -224 -36q-123 0 -221 36q-109 38 -188 111q-172 158 -172 436v897h143v-897q0 -94 25.5 -170.5t67.5 -125.5t99.5 -82.5t118.5 -47.5t127 -14q67 0 128 14t119 47.5t100.5 82.5t68 125.5t25.5 170.5z
M418 1661l327 317l328 -317l-84 -88l-244 254l-241 -254z" />
    <glyph glyph-name="Udieresis" unicode="&#xdc;" horiz-adv-x="1492" 
d="M1186 565v897h143v-897q0 -278 -172 -436q-79 -73 -188 -111q-98 -36 -224 -36q-123 0 -221 36q-109 38 -188 111q-172 158 -172 436v897h143v-897q0 -94 25.5 -170.5t67.5 -125.5t99.5 -82.5t118.5 -47.5t127 -14q67 0 128 14t119 47.5t100.5 82.5t68 125.5t25.5 170.5z
M559 1753q40 0 69 -29t29 -69q0 -41 -29 -71t-69 -30q-41 0 -70.5 30t-29.5 71q0 40 29.5 69t70.5 29zM934 1753q41 0 70.5 -29t29.5 -69q0 -41 -29.5 -71t-70.5 -30q-40 0 -69 30t-29 71q0 40 29 69t69 29z" />
    <glyph glyph-name="Yacute" unicode="&#xdd;" horiz-adv-x="1277" 
d="M1024 1462h172l-485 -737v-723h-144v723l-485 737h172l385 -585zM850 1792l-381 -215l-43 72l360 247z" />
    <glyph glyph-name="Thorn" unicode="&#xde;" horiz-adv-x="1433" 
d="M768 1233q100 0 192 -38t162 -108q71 -71 109.5 -163t38.5 -191q0 -206 -148 -354q-71 -71 -163 -109.5t-191 -38.5h-461v-229h-143v1462h143v-231h461zM768 375q148 0 253 105t105 253t-105 252.5t-253 104.5h-461v-715h461z" />
    <glyph glyph-name="germandbls" unicode="&#xdf;" horiz-adv-x="1495" 
d="M1055 834q123 -48 199.5 -157.5t76.5 -244.5q0 -178 -125.5 -304t-304.5 -126h-430v143h430q119 0 203 84.5t84 202.5t-84 201.5t-203 83.5h-430v143h309q96 0 167 68.5t71 161.5q0 95 -67.5 163t-162.5 68h-165q-131 0 -223.5 -92.5t-92.5 -222.5v-1100h-143v1100
q0 91 35 174.5t100 148.5t149 100t175 35h165q154 0 263.5 -109.5t109.5 -264.5q0 -147 -106 -256z" />
    <glyph glyph-name="agrave" unicode="&#xe0;" 
d="M786 1462q107 0 204 -39.5t171 -113.5q74 -75 114 -172.5t40 -202.5v-932h-144v123q-233 -154 -499 -154q-225 0 -363 129q-145 139 -145 375q0 110 39 199q41 93 116 153q148 121 420 121q206 0 432 -84v80q0 160 -112.5 272.5t-272.5 112.5q-44 0 -89 -2.5t-83.5 -7.5
t-75.5 -11t-68 -12.5t-58 -13t-47.5 -12.5t-35 -11t-22.5 -7l-8 -3l-53 123q10 4 30.5 11t76 22t115 26.5t146 21t172.5 9.5zM692 84q250 0 479 172v504q-204 76 -403 76q-202 0 -331.5 -93t-129.5 -268q0 -174 105 -282.5t280 -108.5zM526 1792l66 104l360 -247l-45 -72z
" />
    <glyph glyph-name="aacute" unicode="&#xe1;" 
d="M786 1462q107 0 204 -39.5t171 -113.5q74 -75 114 -172.5t40 -202.5v-932h-144v123q-233 -154 -499 -154q-225 0 -363 129q-145 139 -145 375q0 110 39 199q41 93 116 153q148 121 420 121q206 0 432 -84v80q0 160 -112.5 272.5t-272.5 112.5q-44 0 -89 -2.5t-83.5 -7.5
t-75.5 -11t-68 -12.5t-58 -13t-47.5 -12.5t-35 -11t-22.5 -7l-8 -3l-53 123q10 4 30.5 11t76 22t115 26.5t146 21t172.5 9.5zM692 84q250 0 479 172v504q-204 76 -403 76q-202 0 -331.5 -93t-129.5 -268q0 -174 105 -282.5t280 -108.5zM950 1792l-381 -215l-43 72l361 247z
" />
    <glyph glyph-name="acircumflex" unicode="&#xe2;" 
d="M786 1462q107 0 204 -39.5t171 -113.5q74 -75 114 -172.5t40 -202.5v-932h-144v123q-233 -154 -499 -154q-225 0 -363 129q-145 139 -145 375q0 110 39 199q41 93 116 153q148 121 420 121q206 0 432 -84v80q0 160 -112.5 272.5t-272.5 112.5q-44 0 -89 -2.5t-83.5 -7.5
t-75.5 -11t-68 -12.5t-58 -13t-47.5 -12.5t-35 -11t-22.5 -7l-8 -3l-53 123q10 4 30.5 11t76 22t115 26.5t146 21t172.5 9.5zM692 84q250 0 479 172v504q-204 76 -403 76q-202 0 -331.5 -93t-129.5 -268q0 -174 105 -282.5t280 -108.5zM412 1661l327 317l328 -317l-84 -88
l-244 254l-241 -254z" />
    <glyph glyph-name="atilde" unicode="&#xe3;" 
d="M786 1462q107 0 204 -39.5t171 -113.5q74 -75 114 -172.5t40 -202.5v-932h-144v123q-233 -154 -499 -154q-225 0 -363 129q-145 139 -145 375q0 110 39 199q41 93 116 153q148 121 420 121q206 0 432 -84v80q0 160 -112.5 272.5t-272.5 112.5q-44 0 -89 -2.5t-83.5 -7.5
t-75.5 -11t-68 -12.5t-58 -13t-47.5 -12.5t-35 -11t-22.5 -7l-8 -3l-53 123q10 4 30.5 11t76 22t115 26.5t146 21t172.5 9.5zM692 84q250 0 479 172v504q-204 76 -403 76q-202 0 -331.5 -93t-129.5 -268q0 -174 105 -282.5t280 -108.5zM870 1782q73 0 131 -58
q54 -57 54 -139h-113q0 38 -22 61t-50 23q-18 0 -35 -5.5t-26.5 -11t-30.5 -18.5q-25 -17 -41.5 -26.5t-49.5 -19t-69 -9.5q-88 0 -145 63q-51 61 -51 136h113q0 -32 22 -59t61 -27q20 0 38 5t29 10.5t32 18.5q24 17 40 26.5t47.5 19.5t65.5 10z" />
    <glyph glyph-name="adieresis" unicode="&#xe4;" 
d="M786 1462q107 0 204 -39.5t171 -113.5q74 -75 114 -172.5t40 -202.5v-932h-144v123q-233 -154 -499 -154q-225 0 -363 129q-145 139 -145 375q0 110 39 199q41 93 116 153q148 121 420 121q206 0 432 -84v80q0 160 -112.5 272.5t-272.5 112.5q-44 0 -89 -2.5t-83.5 -7.5
t-75.5 -11t-68 -12.5t-58 -13t-47.5 -12.5t-35 -11t-22.5 -7l-8 -3l-53 123q10 4 30.5 11t76 22t115 26.5t146 21t172.5 9.5zM692 84q250 0 479 172v504q-204 76 -403 76q-202 0 -331.5 -93t-129.5 -268q0 -174 105 -282.5t280 -108.5zM551 1753q40 0 69 -29t29 -69
q0 -41 -29 -71t-69 -30q-41 0 -70.5 30t-29.5 71q0 40 29.5 69t70.5 29zM926 1753q41 0 70.5 -29t29.5 -69q0 -41 -29.5 -71t-70.5 -30q-40 0 -69.5 30t-29.5 71q0 40 29.5 69t69.5 29z" />
    <glyph glyph-name="aring" unicode="&#xe5;" 
d="M786 1462q107 0 204 -39.5t171 -113.5q74 -75 114 -172.5t40 -202.5v-932h-144v123q-233 -154 -499 -154q-225 0 -363 129q-145 139 -145 375q0 110 39 199q41 93 116 153q148 121 420 121q206 0 432 -84v80q0 160 -112.5 272.5t-272.5 112.5q-44 0 -89 -2.5t-83.5 -7.5
t-75.5 -11t-68 -12.5t-58 -13t-47.5 -12.5t-35 -11t-22.5 -7l-8 -3l-53 123q10 4 30.5 11t76 22t115 26.5t146 21t172.5 9.5zM692 84q250 0 479 172v504q-204 76 -403 76q-202 0 -331.5 -93t-129.5 -268q0 -174 105 -282.5t280 -108.5zM739 2003q92 0 158 -65.5t66 -157.5
q0 -94 -66 -160t-158 -66q-94 0 -159.5 66t-65.5 160q0 92 65.5 157.5t159.5 65.5zM739 1663q48 0 81.5 34t33.5 83q0 47 -34 81.5t-81 34.5q-49 0 -82.5 -34t-33.5 -82q0 -50 33.5 -83.5t82.5 -33.5z" />
    <glyph glyph-name="ae" unicode="&#xe6;" horiz-adv-x="2756" 
d="M786 1462q107 0 204 -39.5t171 -113.5q74 -75 114 -172.5t40 -202.5v-932h-144v123q-233 -154 -499 -154q-225 0 -363 129q-145 139 -145 375q0 110 39 199q41 93 116 153q148 121 420 121q206 0 432 -84v80q0 160 -112.5 272.5t-272.5 112.5q-44 0 -89 -2.5t-83.5 -7.5
t-75.5 -11t-68 -12.5t-58 -13t-47.5 -12.5t-35 -11t-22.5 -7l-8 -3l-53 123q10 4 30.5 11t76 22t115 26.5t146 21t172.5 9.5zM692 84q250 0 479 172v504q-204 76 -403 76q-202 0 -331.5 -93t-129.5 -268q0 -174 105 -282.5t280 -108.5zM2593 770h-1274v-37q0 -123 48 -235
t129.5 -193.5t193.5 -129.5t235 -48q301 0 485 217l109 -92q-104 -128 -252 -197q-154 -71 -342 -71q-154 0 -293 59q-133 56 -237 160q-106 110 -160 237q-59 139 -59 293t50.5 291t145.5 238q94 99 236 161q140 58 311 58q146 0 268 -49q116 -45 209 -138
q88 -86 137.5 -201.5t55.5 -246.5zM1919 1337q-241 0 -381.5 -113t-196.5 -331h1098q-26 203 -170.5 323.5t-349.5 120.5z" />
    <glyph glyph-name="ccedilla" unicode="&#xe7;" horiz-adv-x="1542" 
d="M909 1335q-122 0 -233.5 -47.5t-192.5 -128.5t-128.5 -192.5t-47.5 -233.5t47.5 -233.5t128.5 -192.5t192.5 -128.5t233.5 -47.5q214 0 379 133l90 -112q-102 -79 -215 -121q-122 -43 -254 -43q-154 0 -288 57q-138 60 -238 160q-104 104 -160 237q-59 139 -59 291
q0 153 59 289q57 137 160 238q99 102 238 159q142 60 288 60q135 0 254 -45q113 -39 215 -121l-90 -111q-169 133 -379 133zM811 -102q129 -11 187.5 -65t58.5 -126q0 -37 -19.5 -71.5t-59.5 -64.5t-115.5 -46t-174.5 -10v90q141 0 209 35q47 23 47 67q0 34 -31 51
q-51 31 -139 31h-55v285h92v-176z" />
    <glyph glyph-name="egrave" unicode="&#xe8;" horiz-adv-x="1744" 
d="M1581 770h-1274v-37q0 -123 48 -235t129.5 -193.5t193.5 -129.5t235 -48q302 0 486 217l108 -92q-104 -128 -252 -197q-154 -71 -342 -71q-153 0 -292 59q-135 57 -238 160q-106 110 -160 237q-59 139 -59 293t50.5 291t145.5 238q94 99 236 161q140 58 311 58
q147 0 269 -49q114 -44 208 -138q88 -86 137.5 -201.5t55.5 -246.5zM907 1337q-241 0 -381 -112.5t-196 -331.5h1097q-26 203 -170.5 323.5t-349.5 120.5zM659 1792l66 104l360 -247l-45 -72z" />
    <glyph glyph-name="eacute" unicode="&#xe9;" horiz-adv-x="1744" 
d="M1581 770h-1274v-37q0 -123 48 -235t129.5 -193.5t193.5 -129.5t235 -48q302 0 486 217l108 -92q-104 -128 -252 -197q-154 -71 -342 -71q-153 0 -292 59q-135 57 -238 160q-106 110 -160 237q-59 139 -59 293t50.5 291t145.5 238q94 99 236 161q140 58 311 58
q147 0 269 -49q114 -44 208 -138q88 -86 137.5 -201.5t55.5 -246.5zM907 1337q-241 0 -381 -112.5t-196 -331.5h1097q-26 203 -170.5 323.5t-349.5 120.5zM1083 1792l-381 -215l-43 72l361 247z" />
    <glyph glyph-name="ecircumflex" unicode="&#xea;" horiz-adv-x="1744" 
d="M1581 770h-1274v-37q0 -123 48 -235t129.5 -193.5t193.5 -129.5t235 -48q302 0 486 217l108 -92q-104 -128 -252 -197q-154 -71 -342 -71q-153 0 -292 59q-135 57 -238 160q-106 110 -160 237q-59 139 -59 293t50.5 291t145.5 238q94 99 236 161q140 58 311 58
q147 0 269 -49q114 -44 208 -138q88 -86 137.5 -201.5t55.5 -246.5zM907 1337q-241 0 -381 -112.5t-196 -331.5h1097q-26 203 -170.5 323.5t-349.5 120.5zM545 1661l327 317l328 -317l-84 -88l-244 254l-241 -254z" />
    <glyph glyph-name="edieresis" unicode="&#xeb;" horiz-adv-x="1744" 
d="M1581 770h-1274v-37q0 -123 48 -235t129.5 -193.5t193.5 -129.5t235 -48q302 0 486 217l108 -92q-104 -128 -252 -197q-154 -71 -342 -71q-153 0 -292 59q-135 57 -238 160q-106 110 -160 237q-59 139 -59 293t50.5 291t145.5 238q94 99 236 161q140 58 311 58
q147 0 269 -49q114 -44 208 -138q88 -86 137.5 -201.5t55.5 -246.5zM907 1337q-241 0 -381 -112.5t-196 -331.5h1097q-26 203 -170.5 323.5t-349.5 120.5zM684 1753q40 0 69 -29t29 -69q0 -41 -29 -71t-69 -30q-41 0 -70.5 30t-29.5 71q0 40 29.5 69t70.5 29zM1059 1753
q41 0 70.5 -29t29.5 -69q0 -41 -29.5 -71t-70.5 -30q-40 0 -69 30t-29 71q0 40 29 69t69 29z" />
    <glyph glyph-name="igrave" unicode="&#xec;" horiz-adv-x="471" 
d="M164 2v1462h143v-1462h-143zM23 1792l65 104l361 -247l-46 -72z" />
    <glyph glyph-name="iacute" unicode="&#xed;" horiz-adv-x="471" 
d="M164 2v1462h143v-1462h-143zM449 1792l-381 -215l-43 72l360 247z" />
    <glyph glyph-name="icircumflex" unicode="&#xee;" horiz-adv-x="471" 
d="M164 2v1462h143v-1462h-143zM-92 1661l328 317l327 -317l-84 -88l-243 254l-242 -254z" />
    <glyph glyph-name="idieresis" unicode="&#xef;" horiz-adv-x="471" 
d="M164 2v1462h143v-1462h-143zM49 1753q40 0 69 -29t29 -69q0 -41 -29 -71t-69 -30q-41 0 -70.5 30t-29.5 71q0 40 29.5 69t70.5 29zM424 1753q41 0 70.5 -29t29.5 -69q0 -41 -29.5 -71t-70.5 -30q-40 0 -69 30t-29 71q0 40 29 69t69 29z" />
    <glyph glyph-name="ntilde" unicode="&#xf1;" 
d="M1157 1352q158 -146 158 -396v-954h-144v975q0 181 -102.5 283t-282.5 102q-96 0 -177 -26.5t-130.5 -61.5t-89 -82t-55.5 -76.5t-27 -56.5v-1057h-143v1462h143v-196q172 217 479 217q100 0 201 -33q103 -36 170 -100zM870 1782q73 0 131 -58q54 -57 54 -139h-113
q0 38 -22 61t-50 23q-18 0 -35 -5.5t-26.5 -11t-30.5 -18.5q-25 -17 -41.5 -26.5t-49.5 -19t-69 -9.5q-88 0 -145 63q-51 61 -51 136h113q0 -32 22 -59t61 -27q20 0 38 5t29 10.5t32 18.5q24 17 40 26.5t47.5 19.5t65.5 10z" />
    <glyph glyph-name="ograve" unicode="&#xf2;" horiz-adv-x="1818" 
d="M1436 1260q101 -98 159 -236q60 -142 60 -291t-60 -291q-57 -135 -159 -237q-100 -100 -238 -160q-134 -57 -289 -57q-157 0 -291 57q-133 59 -237 160q-106 110 -160 237q-57 134 -57 291t57 291q55 131 160 236q102 102 237 159q142 60 291 60q147 0 289 -60
q139 -57 238 -159zM909 131q122 0 233.5 47.5t192.5 128.5t128.5 192.5t47.5 233.5t-47.5 233.5t-128.5 192.5t-192.5 128.5t-233.5 47.5q-123 0 -234.5 -47.5t-192 -128.5t-128 -192.5t-47.5 -233.5t47.5 -233.5t128 -192.5t192 -128.5t234.5 -47.5zM696 1792l66 104
l360 -247l-45 -72z" />
    <glyph glyph-name="oacute" unicode="&#xf3;" horiz-adv-x="1818" 
d="M1436 1260q101 -98 159 -236q60 -142 60 -291t-60 -291q-57 -135 -159 -237q-100 -100 -238 -160q-134 -57 -289 -57q-157 0 -291 57q-133 59 -237 160q-106 110 -160 237q-57 134 -57 291t57 291q55 131 160 236q102 102 237 159q142 60 291 60q147 0 289 -60
q139 -57 238 -159zM909 131q122 0 233.5 47.5t192.5 128.5t128.5 192.5t47.5 233.5t-47.5 233.5t-128.5 192.5t-192.5 128.5t-233.5 47.5q-123 0 -234.5 -47.5t-192 -128.5t-128 -192.5t-47.5 -233.5t47.5 -233.5t128 -192.5t192 -128.5t234.5 -47.5zM1120 1792l-381 -215
l-43 72l361 247z" />
    <glyph glyph-name="ocircumflex" unicode="&#xf4;" horiz-adv-x="1818" 
d="M1436 1260q101 -98 159 -236q60 -142 60 -291t-60 -291q-57 -135 -159 -237q-100 -100 -238 -160q-134 -57 -289 -57q-157 0 -291 57q-133 59 -237 160q-106 110 -160 237q-57 134 -57 291t57 291q55 131 160 236q102 102 237 159q142 60 291 60q147 0 289 -60
q139 -57 238 -159zM909 131q122 0 233.5 47.5t192.5 128.5t128.5 192.5t47.5 233.5t-47.5 233.5t-128.5 192.5t-192.5 128.5t-233.5 47.5q-123 0 -234.5 -47.5t-192 -128.5t-128 -192.5t-47.5 -233.5t47.5 -233.5t128 -192.5t192 -128.5t234.5 -47.5zM582 1661l327 317
l328 -317l-84 -88l-244 254l-241 -254z" />
    <glyph glyph-name="otilde" unicode="&#xf5;" horiz-adv-x="1818" 
d="M1436 1260q101 -98 159 -236q60 -142 60 -291t-60 -291q-57 -135 -159 -237q-100 -100 -238 -160q-134 -57 -289 -57q-157 0 -291 57q-133 59 -237 160q-106 110 -160 237q-57 134 -57 291t57 291q55 131 160 236q102 102 237 159q142 60 291 60q147 0 289 -60
q139 -57 238 -159zM909 131q122 0 233.5 47.5t192.5 128.5t128.5 192.5t47.5 233.5t-47.5 233.5t-128.5 192.5t-192.5 128.5t-233.5 47.5q-123 0 -234.5 -47.5t-192 -128.5t-128 -192.5t-47.5 -233.5t47.5 -233.5t128 -192.5t192 -128.5t234.5 -47.5zM1040 1782
q73 0 131 -58q54 -57 54 -139h-113q0 38 -22 61t-50 23q-18 0 -35 -5.5t-26.5 -11t-30.5 -18.5q-25 -17 -41.5 -26.5t-49.5 -19t-69 -9.5q-88 0 -145 63q-51 61 -51 136h113q0 -32 22 -59t61 -27q20 0 38 5t29 10.5t32 18.5q24 17 40 26.5t47.5 19.5t65.5 10z" />
    <glyph glyph-name="odieresis" unicode="&#xf6;" horiz-adv-x="1818" 
d="M1436 1260q101 -98 159 -236q60 -142 60 -291t-60 -291q-57 -135 -159 -237q-100 -100 -238 -160q-134 -57 -289 -57q-157 0 -291 57q-133 59 -237 160q-106 110 -160 237q-57 134 -57 291t57 291q55 131 160 236q102 102 237 159q142 60 291 60q147 0 289 -60
q139 -57 238 -159zM909 131q122 0 233.5 47.5t192.5 128.5t128.5 192.5t47.5 233.5t-47.5 233.5t-128.5 192.5t-192.5 128.5t-233.5 47.5q-123 0 -234.5 -47.5t-192 -128.5t-128 -192.5t-47.5 -233.5t47.5 -233.5t128 -192.5t192 -128.5t234.5 -47.5zM721 1753q40 0 69 -29
t29 -69q0 -41 -29 -71t-69 -30q-41 0 -70.5 30t-29.5 71q0 40 29.5 69t70.5 29zM1096 1753q41 0 70.5 -29t29.5 -69q0 -41 -29.5 -71t-70.5 -30q-40 0 -69.5 30t-29.5 71q0 40 29.5 69t69.5 29z" />
    <glyph glyph-name="divide" unicode="&#xf7;" horiz-adv-x="821" 
d="M164 659v113h493v-113h-493zM412 567q37 0 62.5 -25.5t25.5 -62.5t-25.5 -63.5t-62.5 -26.5t-63.5 26.5t-26.5 63.5t26.5 62.5t63.5 25.5zM412 864q-37 0 -63.5 26.5t-26.5 63.5q0 35 26.5 61.5t63.5 26.5q36 0 62 -26t26 -62q0 -37 -25.5 -63.5t-62.5 -26.5z" />
    <glyph glyph-name="oslash" unicode="&#xf8;" horiz-adv-x="1818" 
d="M1438 1260q98 -98 159 -236q58 -137 58 -291t-58 -291q-60 -135 -159 -237q-103 -100 -238 -160q-134 -57 -291 -57q-128 0 -241 39l-109 -244h-113l127 285q-103 50 -190 137q-104 104 -160 237q-59 139 -59 291t59 291q57 136 160 236q99 102 235 159q142 60 291 60
q141 0 269 -49l82 188h112l-102 -232q99 -57 168 -126zM307 733q0 -171 88.5 -314.5t235.5 -219.5l487 1099q-106 37 -209 37q-122 0 -233.5 -47.5t-192.5 -128.5t-128.5 -192.5t-47.5 -233.5zM909 131q122 0 233.5 47.5t192.5 128.5t128.5 192.5t47.5 233.5
q0 163 -81.5 302t-217.5 218l-485 -1093q92 -29 182 -29z" />
    <glyph glyph-name="ugrave" unicode="&#xf9;" 
d="M1171 256v1208h144v-1462h-144v123q-240 -154 -501 -154q-223 0 -361 129q-145 139 -145 375v989h143v-989q0 -173 105 -282t278 -109q252 0 481 172zM526 1792l66 104l360 -247l-45 -72z" />
    <glyph glyph-name="uacute" unicode="&#xfa;" 
d="M1171 256v1208h144v-1462h-144v123q-240 -154 -501 -154q-223 0 -361 129q-145 139 -145 375v989h143v-989q0 -173 105 -282t278 -109q252 0 481 172zM950 1792l-381 -215l-43 72l361 247z" />
    <glyph glyph-name="ucircumflex" unicode="&#xfb;" 
d="M1171 256v1208h144v-1462h-144v123q-240 -154 -501 -154q-223 0 -361 129q-145 139 -145 375v989h143v-989q0 -173 105 -282t278 -109q252 0 481 172zM412 1661l327 317l328 -317l-84 -88l-244 254l-241 -254z" />
    <glyph glyph-name="udieresis" unicode="&#xfc;" 
d="M1171 256v1208h144v-1462h-144v123q-240 -154 -501 -154q-223 0 -361 129q-145 139 -145 375v989h143v-989q0 -173 105 -282t278 -109q252 0 481 172zM551 1753q40 0 69 -29t29 -69q0 -41 -29 -71t-69 -30q-41 0 -70.5 30t-29.5 71q0 40 29.5 69t70.5 29zM926 1753
q41 0 70.5 -29t29.5 -69q0 -41 -29.5 -71t-70.5 -30q-40 0 -69.5 30t-29.5 71q0 40 29.5 69t69.5 29z" />
    <glyph glyph-name="yacute" unicode="&#xfd;" horiz-adv-x="1437" 
d="M1130 780v684h144v-981q0 -260 -195 -395q-156 -106 -385 -106q-89 0 -176 15.5t-143.5 34.5t-107.5 44.5t-68 36.5t-27 18l86 94h-2l14 -9q13 -8 42 -23t63 -29q151 -60 319 -60q27 0 56.5 2.5t74 11t84 23t81.5 42t72 64t49 92.5t19 124v125q-172 -176 -432 -176
q-126 0 -233 43q-106 44 -182 120q-77 77 -118.5 179t-41.5 215v495h143v-495q0 -185 121.5 -309.5t310.5 -124.5q83 0 154.5 20t116 47.5t81 64.5t53 62.5t27.5 50.5zM909 1792l-381 -215l-43 72l361 247z" />
    <glyph glyph-name="thorn" unicode="&#xfe;" horiz-adv-x="1433" 
d="M768 1233q100 0 192 -38t162 -108q71 -71 109.5 -163t38.5 -191q0 -206 -148 -354q-71 -71 -163 -109.5t-191 -38.5h-461v-229h-143v1462h143v-231h461zM768 375q148 0 253 105t105 253t-105 252.5t-253 104.5h-461v-715h461z" />
    <glyph glyph-name="ydieresis" unicode="&#xff;" horiz-adv-x="1437" 
d="M1130 780v684h144v-981q0 -260 -195 -395q-156 -106 -385 -106q-89 0 -176 15.5t-143.5 34.5t-107.5 44.5t-68 36.5t-27 18l86 94h-2l14 -9q13 -8 42 -23t63 -29q151 -60 319 -60q27 0 56.5 2.5t74 11t84 23t81.5 42t72 64t49 92.5t19 124v125q-172 -176 -432 -176
q-126 0 -233 43q-106 44 -182 120q-77 77 -118.5 179t-41.5 215v495h143v-495q0 -185 121.5 -309.5t310.5 -124.5q83 0 154.5 20t116 47.5t81 64.5t53 62.5t27.5 50.5zM510 1753q40 0 69 -29t29 -69q0 -41 -29 -71t-69 -30q-41 0 -70.5 30t-29.5 71q0 40 29.5 69t70.5 29z
M885 1753q41 0 70.5 -29t29.5 -69q0 -41 -29.5 -71t-70.5 -30q-40 0 -69.5 30t-29.5 71q0 40 29.5 69t69.5 29z" />
    <glyph glyph-name="Lslash" unicode="&#x141;" horiz-adv-x="1155" 
d="M84 588l-59 96l436 266l59 -96zM307 1462v-1317h705l-21 -143h-827v1460h143z" />
    <glyph glyph-name="lslash" unicode="&#x142;" horiz-adv-x="1075" 
d="M84 588l-59 96l436 266l59 -96zM307 1464v-1319h625l-21 -143h-747v1462h143z" />
    <glyph glyph-name="OE" unicode="&#x152;" horiz-adv-x="2715" 
d="M1436 1260q102 -99 159 -238q60 -138 60 -289q0 -149 -60 -291q-57 -135 -159 -237q-100 -100 -238 -160q-132 -57 -289 -57t-291 57q-133 59 -237 160q-101 104 -160 237q-57 134 -57 291t57 289q60 138 160 238q102 102 237 159q142 60 291 60q151 0 289 -60
q139 -57 238 -159zM909 131q122 0 233.5 47.5t192.5 128.5t128.5 192.5t47.5 233.5t-47.5 233.5t-128.5 192.5t-192.5 128.5t-233.5 47.5t-233.5 -47.5t-192.5 -128.5t-128.5 -192.5t-47.5 -233.5t47.5 -233.5t128.5 -192.5t192.5 -128.5t233.5 -47.5zM1663 748v-603h889
l-31 -143h-1001v1460h981v-143h-838v-428h698v-143h-698z" />
    <glyph glyph-name="oe" unicode="&#x153;" horiz-adv-x="3112" 
d="M1436 1260q101 -98 159 -236q60 -142 60 -291t-60 -291q-57 -135 -159 -237q-100 -100 -238 -160q-134 -57 -289 -57q-157 0 -291 57q-133 59 -237 160q-106 110 -160 237q-57 134 -57 291t57 291q55 131 160 236q102 102 237 159q142 60 291 60q147 0 289 -60
q139 -57 238 -159zM909 131q122 0 233.5 47.5t192.5 128.5t128.5 192.5t47.5 233.5t-47.5 233.5t-128.5 192.5t-192.5 128.5t-233.5 47.5q-123 0 -234.5 -47.5t-192 -128.5t-128 -192.5t-47.5 -233.5t47.5 -233.5t128 -192.5t192 -128.5t234.5 -47.5zM2949 770h-1274v-37
q0 -123 48 -235t129.5 -193.5t193.5 -129.5t235 -48q302 0 486 217l108 -92q-104 -128 -252 -197q-154 -71 -342 -71q-153 0 -292 59q-135 57 -238 160q-106 110 -160 237q-59 139 -59 293t51 291t146 238q94 100 235 161q140 58 311 58q147 0 269 -49q116 -45 209 -138
q87 -86 136.5 -201.5t55.5 -246.5zM2275 1337q-241 0 -381 -112.5t-196 -331.5h1098q-26 203 -171 323.5t-350 120.5z" />
    <glyph glyph-name="Scaron" unicode="&#x160;" horiz-adv-x="1368" 
d="M1026 668q80 -57 127 -131q51 -85 51 -185q0 -174 -151 -278q-133 -92 -342 -92q-78 0 -150 14t-124 35t-99 49.5t-76 53.5t-53.5 51t-32.5 37.5t-12 17.5l121 75l11 -13q10 -14 34.5 -38t54.5 -45q134 -94 326 -94q168 0 260 65q90 63 90 162q0 116 -117 199
q-91 65 -303 143q-217 86 -305 146q-75 52 -115 112q-47 74 -47 164q0 175 148 266q130 80 356 80q76 0 154 -15.5t134 -35.5t106 -44.5t71 -37t28 -18.5l-38 -60l-41 -59q-2 2 -21.5 14t-60.5 31.5t-89 37.5t-114 31t-129 13q-189 0 -281 -57q-80 -53 -80 -146
q0 -89 101 -160q76 -52 276 -129q81 -31 122 -48t103.5 -48t106.5 -63zM684 1722l242 256l86 -90l-328 -315l-330 315l86 90z" />
    <glyph glyph-name="scaron" unicode="&#x161;" horiz-adv-x="1368" 
d="M1028 668q82 -58 125 -131q51 -85 51 -185q0 -176 -151 -278q-133 -92 -342 -92q-78 0 -150 14t-124 35t-99 49.5t-76 53.5t-53.5 51t-32.5 37.5t-12 17.5l123 75h-2l11 -13q10 -13 34.5 -37t54.5 -46q139 -94 326 -94q162 0 262 68q88 60 88 159q0 116 -117 199
q-89 63 -301 143q-222 87 -307 146q-76 52 -115 114q-47 71 -47 162q0 175 148 266q133 82 356 82q89 0 178.5 -19.5t158 -51t100.5 -48.5t56 -32l3 -2l-41 -60l-41 -59q-2 2 -21.5 14t-60.5 32t-89 38t-114 31.5t-129 13.5q-186 0 -281 -59q-80 -53 -80 -146
q0 -90 101 -158q34 -24 85 -49t84 -38t107 -42q6 -2 34.5 -13.5t36.5 -15t34 -14t36 -15t33 -15t35 -16.5l32 -16t33.5 -18t29.5 -18t30 -20zM684 1722l242 256l86 -90l-328 -315l-330 315l86 90z" />
    <glyph glyph-name="Ydieresis" unicode="&#x178;" horiz-adv-x="1277" 
d="M1024 1462h172l-485 -737v-723h-144v723l-485 737h172l385 -585zM451 1753q40 0 69 -29t29 -69q0 -41 -29 -71t-69 -30q-41 0 -71 30t-30 71q0 40 30 69t71 29zM825 1753q41 0 71 -29t30 -69q0 -41 -30 -71t-71 -30q-40 0 -69 30t-29 71q0 40 29 69t69 29z" />
    <glyph glyph-name="Zcaron" unicode="&#x17d;" horiz-adv-x="1495" 
d="M1315 1462l-883 -1317h899v-143h-1167l883 1317h-809v143h1077zM748 1722l241 256l86 -90l-327 -315l-330 315l86 90z" />
    <glyph glyph-name="zcaron" unicode="&#x17e;" horiz-adv-x="1497" 
d="M1317 1464l-883 -1319h899v-143h-1169l883 1319h-809v143h1079zM750 1722l241 256l86 -90l-327 -315l-330 315l86 90z" />
    <glyph glyph-name="circumflex" unicode="&#x2c6;" horiz-adv-x="983" 
d="M164 1251l328 318l327 -318l-84 -88l-243 254l-242 -254z" />
    <glyph glyph-name="caron" unicode="&#x2c7;" horiz-adv-x="985" 
d="M494 1313l241 256l86 -90l-327 -316l-330 316l86 90z" />
    <glyph glyph-name="ring" unicode="&#x2da;" horiz-adv-x="776" 
d="M389 1593q92 0 157.5 -65.5t65.5 -157.5q0 -94 -65.5 -159.5t-157.5 -65.5q-94 0 -159.5 65.5t-65.5 159.5q0 92 65.5 157.5t159.5 65.5zM389 1253q48 0 81.5 34t33.5 83q0 47 -34 82t-81 35q-49 0 -83 -34.5t-34 -82.5q0 -50 34 -83.5t83 -33.5z" />
    <glyph glyph-name="tilde" unicode="&#x2dc;" horiz-adv-x="960" 
d="M612 1372q74 0 131 -57q54 -57 54 -139h-113q0 38 -22 61t-50 23q-18 0 -35 -5.5t-26.5 -11t-30.5 -18.5q-26 -18 -42 -27t-49 -19t-69 -10q-87 0 -145 64q-51 61 -51 135h112q0 -32 22.5 -59t61.5 -27q20 0 38.5 5.5t28.5 10.5t32 19q77 55 153 55z" />
    <glyph glyph-name="quoteleft" unicode="&#x2018;" horiz-adv-x="505" 
d="M342 1425q-61 -46 -72 -118q31 -6 51.5 -30t20.5 -56q0 -37 -26.5 -64t-63.5 -27q-36 0 -62 27t-26 64q0 79 55.5 151t97.5 92z" />
    <glyph glyph-name="quoteright" unicode="&#x2019;" horiz-adv-x="505" 
d="M254 1464q37 0 62.5 -26.5t25.5 -63.5q0 -79 -56 -151.5t-98 -92.5l-24 39q62 48 72 119q-31 6 -51.5 30t-20.5 56q0 37 26.5 63.5t63.5 26.5z" />
    <glyph glyph-name="quotesinglbase" unicode="&#x201a;" horiz-adv-x="505" 
d="M254 180q37 0 62.5 -26.5t25.5 -63.5q0 -78 -56.5 -151t-97.5 -91l-24 37q62 48 72 119q-31 6 -51.5 30.5t-20.5 55.5q0 37 26.5 63.5t63.5 26.5z" />
    <glyph glyph-name="quotedblleft" unicode="&#x201c;" horiz-adv-x="759" 
d="M596 1425q-61 -46 -72 -118q31 -6 51.5 -30t20.5 -56q0 -37 -26.5 -64t-63.5 -27q-36 0 -62 27t-26 64q0 79 55.5 151t97.5 92zM342 1425q-62 -48 -72 -118q31 -6 51.5 -30t20.5 -56q0 -37 -26.5 -64t-63.5 -27q-36 0 -62 27t-26 64q0 79 55.5 151t97.5 92z" />
    <glyph glyph-name="quotedblright" unicode="&#x201d;" horiz-adv-x="759" 
d="M254 1464q37 0 62.5 -26.5t25.5 -63.5q0 -79 -56 -151.5t-98 -92.5l-24 39q62 48 72 119q-31 6 -51.5 30t-20.5 56q0 37 26.5 63.5t63.5 26.5zM508 1464q37 0 62.5 -26.5t25.5 -63.5q0 -79 -56 -151.5t-98 -92.5l-24 39q60 47 71 119q-31 6 -51 30t-20 56q0 37 26.5 63.5
t63.5 26.5z" />
    <glyph glyph-name="quotedblbase" unicode="&#x201e;" horiz-adv-x="759" 
d="M254 180q37 0 62.5 -26.5t25.5 -63.5q0 -78 -56.5 -151t-97.5 -91l-24 37q62 48 72 119q-31 6 -51.5 30.5t-20.5 55.5q0 37 26.5 63.5t63.5 26.5zM508 180q37 0 62.5 -26.5t25.5 -63.5q0 -78 -56.5 -151t-97.5 -91l-24 37q60 47 71 119q-31 6 -51 30.5t-20 55.5
q0 37 26.5 63.5t63.5 26.5z" />
    <glyph glyph-name="dagger" unicode="&#x2020;" horiz-adv-x="772" 
d="M328 -217v1835h112v-1835h-112zM164 659v113h444v-113h-444z" />
    <glyph glyph-name="daggerdbl" unicode="&#x2021;" horiz-adv-x="868" 
d="M377 -217v1835h112v-1835h-112zM164 915v93h541v-93h-541zM164 494v92h541v-92h-541z" />
    <glyph glyph-name="bullet" unicode="&#x2022;" horiz-adv-x="583" 
d="M291 815q54 0 91.5 -37.5t37.5 -91.5q0 -53 -37.5 -90t-91.5 -37q-53 0 -90 37.5t-37 89.5q0 54 37 91.5t90 37.5z" />
    <glyph glyph-name="ellipsis" unicode="&#x2026;" horiz-adv-x="1517" 
d="M254 180q37 0 62.5 -26.5t25.5 -63.5t-25.5 -62.5t-62.5 -25.5t-63.5 25.5t-26.5 62.5t26.5 63.5t63.5 26.5zM760 180q37 0 62.5 -26.5t25.5 -63.5t-25.5 -62.5t-62.5 -25.5t-63.5 25.5t-26.5 62.5t26.5 63.5t63.5 26.5zM1266 180q37 0 62.5 -26.5t25.5 -63.5
t-25.5 -62.5t-62.5 -25.5t-63.5 25.5t-26.5 62.5t26.5 63.5t63.5 26.5z" />
    <glyph glyph-name="lira" unicode="&#x20a4;" horiz-adv-x="1409" 
d="M1145 205l100 -49q-2 -5 -11.5 -20.5t-35.5 -43.5t-60.5 -52t-92 -42t-123.5 -18q-101 0 -301 55q-50 14 -75.5 20.5t-69 16.5t-71.5 12.5t-62.5 1.5t-63.5 -8l-46 -10l-40 88l32 26q181 157 181 344h-242v92h235q-5 31 -37 162q-3 12 -8 34t-8 34h-182v92h164
q-11 68 -11 109q0 78 27.5 150.5t80 133t139.5 97t196 36.5q71 0 139.5 -21.5t114.5 -51t85 -63t56 -53t21 -26.5l-91 -67q0 2 -10 13.5t-33 33t-49 39.5q-113 84 -233 84q-82 0 -147 -26t-104 -70t-59 -97t-20 -112q0 -47 10 -109h664v-92h-643q2 -6 12 -41
q34 -146 39 -189h592v-92h-586q0 -39 -4 -59q-15 -145 -119 -270q80 -6 256 -54q181 -51 271 -51q46 0 86 12t63 26.5t41.5 33.5t24 27.5t8.5 13.5z" />
    <glyph glyph-name="Euro" unicode="&#x20ac;" horiz-adv-x="1447" 
d="M885 1354q-30 0 -49 -1t-60 -9t-71 -22.5t-69 -45t-67 -73t-53.5 -110.5t-38.5 -153h627v-92h-637q-4 -70 -4 -115t4 -115h637v-92h-627q10 -67 28 -123t38 -96t48 -72t51.5 -52t55.5 -34t54 -21t52.5 -10.5t44 -4t36.5 -0.5q52 0 105 11.5t91 27.5t69 32t46 28l16 11
l72 -88l-12 -9q-13 -8 -31.5 -19.5t-45.5 -26t-61.5 -28.5t-72.5 -26t-84 -19t-92 -7q-237 0 -369 150q-79 85 -121 227q-21 68 -33 149h-198v92h190q-4 74 -4 115t4 115h-190v92h198q12 80 33 150q40 137 121 227q134 149 369 149q63 0 128 -14.5t106.5 -31t86 -41.5
t55 -32.5t23.5 -17.5l-35 -43l-37 -45q0 1 -15.5 12.5t-46.5 28.5t-69 33t-91 27.5t-105 11.5z" />
    </font>
</defs>
</svg>
