<?xml version="1.0" standalone="no"?>
<!DOCTYPE svg PUBLIC "-//W3C//DTD SVG 20010904//EN"
 "http://www.w3.org/TR/2001/REC-SVG-20010904/DTD/svg10.dtd">
<svg version="1.0" xmlns="http://www.w3.org/2000/svg"
 width="75.000000pt" height="75.000000pt" viewBox="0 0 75.000000 75.000000"
 preserveAspectRatio="xMidYMid meet">
<metadata>
Created by potrace 1.14, written by Peter Selinger 2001-2017
</metadata>
<g transform="translate(0.000000,75.000000) scale(0.100000,-0.100000)"
fill="#000000" stroke="none">
<path d="M221 654 c-74 -35 -137 -66 -139 -68 -3 -3 -56 -231 -68 -294 -3 -17
20 -53 93 -147 l98 -124 162 -1 162 0 100 127 c55 69 99 129 97 132 -2 3 -18
74 -36 156 l-33 151 -135 64 c-74 36 -142 66 -151 67 -9 2 -77 -27 -150 -63z
m284 -18 l133 -64 27 -119 c14 -65 30 -130 35 -145 8 -25 0 -39 -87 -148 l-95
-120 -150 0 c-119 0 -153 3 -162 14 -6 8 -48 61 -93 119 l-82 103 34 148 c18
81 35 148 37 150 24 14 255 125 262 125 4 1 68 -28 141 -63z"/>
<path d="M369 649 c-21 -39 -16 -120 9 -161 39 -63 146 -97 205 -67 36 19 56
40 51 54 -4 10 -15 7 -42 -12 -102 -70 -241 35 -204 154 14 44 0 67 -19 32z"/>
<path d="M283 633 c-8 -2 -13 -22 -13 -45 l0 -40 -35 22 c-22 14 -42 19 -56
15 -18 -6 -16 -9 18 -27 56 -30 73 -48 99 -103 27 -57 31 -129 10 -179 -19
-45 -70 -101 -106 -116 -24 -10 -28 -15 -19 -27 10 -11 15 -11 35 2 33 21 34
20 34 -25 0 -27 4 -40 14 -40 9 0 14 13 14 39 2 115 116 224 224 214 52 -4
122 -29 138 -48 12 -15 30 -12 30 5 0 5 -16 20 -35 33 l-36 24 29 12 c16 7 29
19 29 27 0 18 -11 18 -50 -2 -44 -23 -134 -21 -184 5 -79 40 -126 122 -121
209 2 28 1 52 -2 51 -3 0 -11 -3 -17 -6z m120 -280 c15 -8 13 -11 -18 -26
l-35 -17 0 42 c0 38 1 40 18 26 9 -8 25 -19 35 -25z"/>
<path d="M445 616 c-3 -9 -7 -22 -9 -29 -2 -7 2 -27 9 -44 18 -42 71 -61 113
-39 34 17 48 44 32 60 -10 10 -22 0 -32 -26 -2 -3 -15 -9 -29 -13 -34 -8 -72
28 -63 59 10 34 10 38 -3 43 -7 3 -15 -2 -18 -11z"/>
<path d="M113 517 c-3 -6 -2 -12 3 -14 5 -2 24 -11 43 -21 117 -59 98 -212
-32 -266 -9 -3 -8 -7 2 -15 33 -22 112 46 131 115 16 56 3 109 -40 157 -32 37
-95 63 -107 44z"/>
<path d="M90 430 c0 -6 11 -15 24 -20 35 -13 49 -43 34 -74 -11 -26 -23 -31
-65 -27 -15 1 -23 -4 -23 -14 0 -8 3 -15 8 -16 4 0 16 -2 26 -4 31 -6 75 23
83 53 10 41 6 62 -18 88 -22 24 -69 33 -69 14z"/>
<path d="M425 253 c-57 -30 -95 -91 -95 -153 0 -49 27 -38 32 14 12 106 124
161 211 102 27 -18 37 -21 41 -11 2 7 -3 20 -12 28 -42 38 -125 48 -177 20z"/>
<path d="M459 175 c-45 -24 -62 -96 -25 -103 14 -3 16 1 11 17 -8 25 9 58 34
66 11 3 33 -1 50 -9 34 -18 50 -6 25 18 -8 9 -18 16 -22 17 -4 0 -16 2 -27 4
-11 2 -32 -2 -46 -10z"/>
</g>
</svg>
